<?xml version="1.0" encoding="utf-8"?>
<!DOCTYPE svg PUBLIC "-//W3C//DTD SVG 1.1//EN" "http://www.w3.org/Graphics/SVG/1.1/DTD/svg11.dtd">
<svg version="1.1" id="Layer_1" xmlns="http://www.w3.org/2000/svg"
     xmlns:xlink="http://www.w3.org/1999/xlink" x="0px" y="0px"
     width="170px" height="110.76923076923077px" viewBox="0 0 170 110.76923076923077"
     enable-background="new 0 0 170 110.76923076923077" xml:space="preserve"><rect stroke-width="0.3" fill="#999999" stroke="#999999" font-family="Arial" font-size="10pt" font-weight="normal" font-style="normal" x="10" y="39" width="149.5" height="1.5" ></rect>
<rect stroke-width="0.3" fill="#999999" stroke="#999999" font-family="Arial" font-size="10pt" font-weight="normal" font-style="normal" x="10" y="49" width="149.5" height="1.5" ></rect>
<rect stroke-width="0.3" fill="#999999" stroke="#999999" font-family="Arial" font-size="10pt" font-weight="normal" font-style="normal" x="10" y="59" width="149.5" height="1.5" ></rect>
<rect stroke-width="0.3" fill="#999999" stroke="#999999" font-family="Arial" font-size="10pt" font-weight="normal" font-style="normal" x="10" y="69" width="149.5" height="1.5" ></rect>
<rect stroke-width="0.3" fill="#999999" stroke="#999999" font-family="Arial" font-size="10pt" font-weight="normal" font-style="normal" x="10" y="79" width="149.5" height="1.5" ></rect>
<rect stroke-width="0.3" fill="black" stroke="black" font-family="Arial" font-size="10pt" font-weight="normal" font-style="normal" x="10" y="39" width="0.5" height="41.5" ></rect>
<rect stroke-width="0.3" fill="black" stroke="black" font-family="Arial" font-size="10pt" font-weight="normal" font-style="normal" x="160" y="39" width="0.5" height="41.5" ></rect>
<path stroke-width="0.3" fill="black" stroke="none" font-family="Arial" font-size="10pt" font-weight="normal" font-style="normal" x="160" y="39" width="0.5" height="41.5" d="M15 49M23.8416 38.9488C24.072 38.8912,24.3024 38.8912,24.5616 38.8912C25.5696 38.8912,26.7504 39.0064,27.7584 39.208C32.4816 40.187200000000004,35.736000000000004 43.384,36.3408 47.6464C36.398399999999995 48.1072,36.4272 48.5392,36.4272 49C36.4272 51.592,35.5344 54.9328,34.007999999999996 57.7264C30.379199999999997 64.2928,23.755200000000002 69.01599999999999,15.8064 70.744C15.6624 70.744,15.5472 70.7728,15.4032 70.7728C15.1152 70.7728,14.9712 70.6,14.9712 70.3408C14.9712 70.05279999999999,15.0288 69.9664,15.604800000000001 69.736C24.7056 66.30879999999999,30.7824 58.9072,31.3296 50.6128C31.3584 50.1808,31.3584 49.6912,31.3584 49.3168C31.3584 45.2848,30.119999999999997 42.2896,27.729599999999998 40.792C26.6928 40.129599999999996,25.5696 39.8128,24.36 39.8128C21.6816 39.8128,18.9456 41.3392,17.6784 43.9024C17.6208 44.104,17.4192 44.536,17.4192 44.5648C17.4192 44.5648,17.4192 44.5648,17.4192 44.5648C17.4192 44.5648,17.448 44.536,17.534399999999998 44.5072C18.168 44.104,18.8592 43.9024,19.5792 43.9024C20.5872 43.9024,21.6528 44.3344,22.401600000000002 45.1408C23.0928 45.8896,23.4672 46.8976,23.4672 47.8192C23.4672 49.6912,22.0848 51.592,19.9248 51.7936C19.7808 51.7936,19.6368 51.8224,19.4928 51.8224C17.1024 51.8224,15.1728 49.6336,15.1728 46.8688C15.1728 46.8112,15.1728 46.7248,15.1728 46.696C15.288 42.577600000000004,19.0608 39.208,23.8416 38.9488M39.1632 42.808C39.2208 42.7792,39.2496 42.7792,39.336 42.7792C39.5376 42.7792,39.768 42.808,39.825599999999994 42.8656C40.5456 43.0672,40.8912 43.7008,40.8912 44.3056C40.8912 44.824,40.632 45.3424,40.1136 45.6304C39.912 45.7744,39.6528 45.8032,39.3936 45.8032C38.9904 45.8032,38.5584 45.6304,38.270399999999995 45.256C38.04 44.968,37.9248 44.6512,37.9248 44.3344C37.9248 43.6144,38.3856 42.8944,39.1632 42.808M39.1632 52.2256C39.2208 52.2256,39.2496 52.2256,39.336 52.2256C39.5376 52.2256,39.768 52.2544,39.825599999999994 52.312C40.5456 52.5136,40.8912 53.1472,40.8912 53.752C40.8912 54.2704,40.632 54.7888,40.1136 55.048C39.912 55.192,39.6528 55.2496,39.3936 55.2496C38.9904 55.2496,38.5584 55.048,38.270399999999995 54.7024C38.04 54.4144,37.9248 54.0976,37.9248 53.752C37.9248 53.032,38.3856 52.3408,39.1632 52.2256" ></path>
<rect stroke-width="0.3" fill="black" stroke="black" font-family="Arial" font-size="10pt" font-weight="normal" font-style="normal" x="69.9506" y="90" width="21.5" height="0.5" ></rect>
<rect stroke-width="0.3" fill="black" stroke="black" font-family="Arial" font-size="10pt" font-weight="normal" font-style="normal" x="69.9506" y="100" width="21.5" height="0.5" ></rect>
<rect stroke-width="0.3" fill="black" stroke="black" font-family="Arial" font-size="10pt" font-weight="normal" font-style="normal" x="69.9506" y="110" width="21.5" height="0.5" ></rect>
<g class="vf-stavenote" ><g class="vf-note" pointer-events="bounding-box" ><g class="vf-notehead" pointer-events="bounding-box" ><rect stroke-width="0.3" fill="black" stroke="black" font-family="Arial" font-size="10pt" font-weight="normal" font-style="normal" x="69.9506" y="110" width="21.5" height="0.5" ></rect>
<path stroke-width="0.3" fill="black" stroke="none" font-family="Arial" font-size="10pt" font-weight="normal" font-style="normal" x="69.9506" y="110" width="21.5" height="0.5" d="M72.9506 110M79.85539999999999 105.3632C80.1326 105.3128,80.40979999999999 105.3128,80.687 105.3128C84.6686 105.3128,87.99499999999999 107.0768,88.4738 109.4456C88.499 109.6724,88.54939999999999 109.874,88.54939999999999 110.0252C88.54939999999999 112.6208,85.12219999999999 114.7124,80.7122 114.7124C76.3022 114.7124,72.9506 112.5704,72.9506 110.0252C72.9506 109.7228,72.97579999999999 109.4204,73.0766 109.0928C73.6814 107.102,76.5038 105.5648,79.85539999999999 105.3632M80.23339999999999 105.9428C80.1074 105.9176,79.931 105.9176,79.80499999999999 105.9176C78.2174 105.9176,77.2598 107.2784,77.2598 108.9668C77.2598 109.874,77.53699999999999 110.8568,78.11659999999999 111.8396C79.07419999999999 113.3516,80.4602 114.1076,81.6446 114.1076C82.65259999999999 114.1076,83.5346 113.5784,83.9378 112.4696C84.1142 112.016,84.18979999999999 111.5624,84.18979999999999 111.0836C84.18979999999999 108.8156,82.451 106.2956,80.23339999999999 105.9428" ></path>
</g>
<g class="vf-notehead" pointer-events="bounding-box" ><rect stroke-width="0.3" fill="black" stroke="black" font-family="Arial" font-size="10pt" font-weight="normal" font-style="normal" x="69.9506" y="90" width="21.5" height="0.5" ></rect>
<path stroke-width="0.3" fill="black" stroke="none" font-family="Arial" font-size="10pt" font-weight="normal" font-style="normal" x="69.9506" y="90" width="21.5" height="0.5" d="M72.9506 95M79.85539999999999 90.3632C80.1326 90.3128,80.40979999999999 90.3128,80.687 90.3128C84.6686 90.3128,87.99499999999999 92.0768,88.4738 94.4456C88.499 94.6724,88.54939999999999 94.874,88.54939999999999 95.0252C88.54939999999999 97.6208,85.12219999999999 99.7124,80.7122 99.7124C76.3022 99.7124,72.9506 97.5704,72.9506 95.0252C72.9506 94.7228,72.97579999999999 94.4204,73.0766 94.0928C73.6814 92.102,76.5038 90.5648,79.85539999999999 90.3632M80.23339999999999 90.9428C80.1074 90.9176,79.931 90.9176,79.80499999999999 90.9176C78.2174 90.9176,77.2598 92.2784,77.2598 93.9668C77.2598 94.874,77.53699999999999 95.8568,78.11659999999999 96.8396C79.07419999999999 98.3516,80.4602 99.1076,81.6446 99.1076C82.65259999999999 99.1076,83.5346 98.5784,83.9378 97.4696C84.1142 97.016,84.18979999999999 96.5624,84.18979999999999 96.0836C84.18979999999999 93.8156,82.451 91.2956,80.23339999999999 90.9428" ></path>
</g>
<g class="vf-notehead" pointer-events="bounding-box" ><rect stroke-width="0.3" fill="black" stroke="black" font-family="Arial" font-size="10pt" font-weight="normal" font-style="normal" x="85.9506" y="90" width="21.5" height="0.5" ></rect>
<path stroke-width="0.3" fill="black" stroke="none" font-family="Arial" font-size="10pt" font-weight="normal" font-style="normal" x="85.9506" y="90" width="21.5" height="0.5" d="M88.9506 90M95.85539999999999 85.3632C96.1326 85.3128,96.40979999999999 85.3128,96.687 85.3128C100.6686 85.3128,103.99499999999999 87.0768,104.4738 89.4456C104.499 89.6724,104.54939999999999 89.874,104.54939999999999 90.0252C104.54939999999999 92.6208,101.12219999999999 94.7124,96.7122 94.7124C92.3022 94.7124,88.9506 92.5704,88.9506 90.0252C88.9506 89.7228,88.97579999999999 89.4204,89.0766 89.0928C89.6814 87.102,92.5038 85.5648,95.85539999999999 85.3632M96.23339999999999 85.9428C96.1074 85.9176,95.931 85.9176,95.80499999999999 85.9176C94.2174 85.9176,93.2598 87.2784,93.2598 88.9668C93.2598 89.874,93.53699999999999 90.8568,94.11659999999999 91.8396C95.07419999999999 93.3516,96.4602 94.1076,97.6446 94.1076C98.65259999999999 94.1076,99.5346 93.5784,99.9378 92.4696C100.1142 92.016,100.18979999999999 91.5624,100.18979999999999 91.0836C100.18979999999999 88.8156,98.451 86.2956,96.23339999999999 85.9428" ></path>
</g>
<g class="vf-notehead" pointer-events="bounding-box" ><path stroke-width="0.3" fill="black" stroke="none" font-family="Arial" font-size="10pt" font-weight="normal" font-style="normal" x="85.9506" y="90" width="21.5" height="0.5" d="M72.9506 80M79.85539999999999 75.3632C80.1326 75.3128,80.40979999999999 75.3128,80.687 75.3128C84.6686 75.3128,87.99499999999999 77.0768,88.4738 79.4456C88.499 79.6724,88.54939999999999 79.874,88.54939999999999 80.0252C88.54939999999999 82.6208,85.12219999999999 84.7124,80.7122 84.7124C76.3022 84.7124,72.9506 82.5704,72.9506 80.0252C72.9506 79.7228,72.97579999999999 79.4204,73.0766 79.0928C73.6814 77.102,76.5038 75.5648,79.85539999999999 75.3632M80.23339999999999 75.9428C80.1074 75.9176,79.931 75.9176,79.80499999999999 75.9176C78.2174 75.9176,77.2598 77.2784,77.2598 78.9668C77.2598 79.874,77.53699999999999 80.8568,78.11659999999999 81.8396C79.07419999999999 83.3516,80.4602 84.1076,81.6446 84.1076C82.65259999999999 84.1076,83.5346 83.5784,83.9378 82.4696C84.1142 82.016,84.18979999999999 81.5624,84.18979999999999 81.0836C84.18979999999999 78.8156,82.451 76.2956,80.23339999999999 75.9428" ></path>
</g>
<g class="vf-notehead" pointer-events="bounding-box" ><path stroke-width="0.3" fill="black" stroke="none" font-family="Arial" font-size="10pt" font-weight="normal" font-style="normal" x="85.9506" y="90" width="21.5" height="0.5" d="M72.9506 70M79.85539999999999 65.3632C80.1326 65.3128,80.40979999999999 65.3128,80.687 65.3128C84.6686 65.3128,87.99499999999999 67.0768,88.4738 69.4456C88.499 69.6724,88.54939999999999 69.874,88.54939999999999 70.0252C88.54939999999999 72.6208,85.12219999999999 74.7124,80.7122 74.7124C76.3022 74.7124,72.9506 72.5704,72.9506 70.0252C72.9506 69.7228,72.97579999999999 69.4204,73.0766 69.0928C73.6814 67.102,76.5038 65.5648,79.85539999999999 65.3632M80.23339999999999 65.9428C80.1074 65.9176,79.931 65.9176,79.80499999999999 65.9176C78.2174 65.9176,77.2598 67.2784,77.2598 68.9668C77.2598 69.874,77.53699999999999 70.8568,78.11659999999999 71.8396C79.07419999999999 73.3516,80.4602 74.1076,81.6446 74.1076C82.65259999999999 74.1076,83.5346 73.5784,83.9378 72.4696C84.1142 72.016,84.18979999999999 71.5624,84.18979999999999 71.0836C84.18979999999999 68.8156,82.451 66.2956,80.23339999999999 65.9428" ></path>
</g>
<g class="vf-notehead" pointer-events="bounding-box" ><path stroke-width="0.3" fill="black" stroke="none" font-family="Arial" font-size="10pt" font-weight="normal" font-style="normal" x="85.9506" y="90" width="21.5" height="0.5" d="M88.9506 65M95.85539999999999 60.3632C96.1326 60.3128,96.40979999999999 60.3128,96.687 60.3128C100.6686 60.3128,103.99499999999999 62.0768,104.4738 64.4456C104.499 64.6724,104.54939999999999 64.874,104.54939999999999 65.0252C104.54939999999999 67.6208,101.12219999999999 69.7124,96.7122 69.7124C92.3022 69.7124,88.9506 67.5704,88.9506 65.0252C88.9506 64.7228,88.97579999999999 64.4204,89.0766 64.0928C89.6814 62.102,92.5038 60.5648,95.85539999999999 60.3632M96.23339999999999 60.9428C96.1074 60.9176,95.931 60.9176,95.80499999999999 60.9176C94.2174 60.9176,93.2598 62.2784,93.2598 63.9668C93.2598 64.874,93.53699999999999 65.8568,94.11659999999999 66.8396C95.07419999999999 68.3516,96.4602 69.1076,97.6446 69.1076C98.65259999999999 69.1076,99.5346 68.5784,99.9378 67.4696C100.1142 67.016,100.18979999999999 66.5624,100.18979999999999 66.0836C100.18979999999999 63.8156,98.451 61.2956,96.23339999999999 60.9428" ></path>
</g>
<g class="vf-notehead" pointer-events="bounding-box" ><path stroke-width="0.3" fill="black" stroke="none" font-family="Arial" font-size="10pt" font-weight="normal" font-style="normal" x="85.9506" y="90" width="21.5" height="0.5" d="M72.9506 55M79.85539999999999 50.3632C80.1326 50.3128,80.40979999999999 50.3128,80.687 50.3128C84.6686 50.3128,87.99499999999999 52.0768,88.4738 54.4456C88.499 54.6724,88.54939999999999 54.874,88.54939999999999 55.0252C88.54939999999999 57.6208,85.12219999999999 59.7124,80.7122 59.7124C76.3022 59.7124,72.9506 57.5704,72.9506 55.0252C72.9506 54.7228,72.97579999999999 54.4204,73.0766 54.0928C73.6814 52.102,76.5038 50.5648,79.85539999999999 50.3632M80.23339999999999 50.9428C80.1074 50.9176,79.931 50.9176,79.80499999999999 50.9176C78.2174 50.9176,77.2598 52.2784,77.2598 53.9668C77.2598 54.874,77.53699999999999 55.8568,78.11659999999999 56.8396C79.07419999999999 58.3516,80.4602 59.1076,81.6446 59.1076C82.65259999999999 59.1076,83.5346 58.5784,83.9378 57.4696C84.1142 57.016,84.18979999999999 56.5624,84.18979999999999 56.0836C84.18979999999999 53.8156,82.451 51.2956,80.23339999999999 50.9428" ></path>
</g>
<g class="vf-notehead" pointer-events="bounding-box" ><path stroke-width="0.3" fill="black" stroke="none" font-family="Arial" font-size="10pt" font-weight="normal" font-style="normal" x="85.9506" y="90" width="21.5" height="0.5" d="M72.9506 45M79.85539999999999 40.3632C80.1326 40.3128,80.40979999999999 40.3128,80.687 40.3128C84.6686 40.3128,87.99499999999999 42.0768,88.4738 44.4456C88.499 44.6724,88.54939999999999 44.874,88.54939999999999 45.0252C88.54939999999999 47.6208,85.12219999999999 49.7124,80.7122 49.7124C76.3022 49.7124,72.9506 47.5704,72.9506 45.0252C72.9506 44.7228,72.97579999999999 44.4204,73.0766 44.0928C73.6814 42.102,76.5038 40.5648,79.85539999999999 40.3632M80.23339999999999 40.9428C80.1074 40.9176,79.931 40.9176,79.80499999999999 40.9176C78.2174 40.9176,77.2598 42.2784,77.2598 43.9668C77.2598 44.874,77.53699999999999 45.8568,78.11659999999999 46.8396C79.07419999999999 48.3516,80.4602 49.1076,81.6446 49.1076C82.65259999999999 49.1076,83.5346 48.5784,83.9378 47.4696C84.1142 47.016,84.18979999999999 46.5624,84.18979999999999 46.0836C84.18979999999999 43.8156,82.451 41.2956,80.23339999999999 40.9428" ></path>
</g>
</g>
<g class="vf-modifiers" ><path stroke-width="0.3" fill="black" stroke="none" font-family="Arial" font-size="10pt" font-weight="normal" font-style="normal" x="85.9506" y="90" width="21.5" height="0.5" d="M62.950599999999994 95M62.731719999999996 77.73584C62.78643999999999 77.70848000000001,62.841159999999995 77.70848000000001,62.92323999999999 77.70848000000001C63.16947999999999 77.70848000000001,63.38835999999999 77.81792,63.470439999999996 78.0368C63.49779999999999 78.14624,63.49779999999999 78.14624,63.49779999999999 84.52112L63.49779999999999 90.95072L63.52515999999999 90.86864C64.56483999999999 89.99312,65.65924 89.55536000000001,66.69891999999999 89.55536000000001C67.10932 89.55536000000001,67.51971999999999 89.61008,67.93011999999999 89.77424C69.16131999999999 90.18464,69.81796 91.33376,69.81796 92.70176000000001C69.81796 93.41312,69.59908 94.20656,69.18867999999999 95C68.58676 96.0944,67.82068 96.96992,65.6866 98.88512L63.579879999999996 100.8824C63.196839999999995 101.26544,63.11476 101.26544,62.950599999999994 101.26544C62.704359999999994 101.26544,62.485479999999995 101.12864,62.4034 100.90976L62.376039999999996 100.80032L62.376039999999996 89.50064L62.376039999999996 78.14624L62.4034 78.0368C62.485479999999995 77.92736,62.594919999999995 77.7632,62.731719999999996 77.73584M65.9602 91.41584C65.85076 91.36112,65.6866 91.36112,65.57715999999999 91.36112C65.49508 91.36112,65.44036 91.36112,65.38564 91.36112C64.67428 91.47056,64.04499999999999 91.90832,63.60724 92.61968L63.49779999999999 92.8112L63.49779999999999 96.01232L63.49779999999999 99.26816L63.579879999999996 99.15872C65.57715999999999 96.96992,66.89044 94.4528,66.89044 92.78384L66.89044 92.72912C66.89044 91.90832,66.61684 91.55264,65.9602 91.41584" ></path>
<path stroke-width="0.3" fill="black" stroke="none" font-family="Arial" font-size="10pt" font-weight="normal" font-style="normal" x="85.9506" y="90" width="21.5" height="0.5" d="M62.950599999999994 70M62.731719999999996 52.735839999999996C62.78643999999999 52.70848,62.841159999999995 52.70848,62.92323999999999 52.70848C63.16947999999999 52.70848,63.38835999999999 52.81792,63.470439999999996 53.0368C63.49779999999999 53.146240000000006,63.49779999999999 53.146240000000006,63.49779999999999 59.521119999999996L63.49779999999999 65.95072L63.52515999999999 65.86864C64.56483999999999 64.99312,65.65924 64.55536000000001,66.69891999999999 64.55536000000001C67.10932 64.55536000000001,67.51971999999999 64.61008,67.93011999999999 64.77424C69.16131999999999 65.18464,69.81796 66.33376,69.81796 67.70176000000001C69.81796 68.41312,69.59908 69.20656,69.18867999999999 70C68.58676 71.0944,67.82068 71.96992,65.6866 73.88512L63.579879999999996 75.8824C63.196839999999995 76.26544,63.11476 76.26544,62.950599999999994 76.26544C62.704359999999994 76.26544,62.485479999999995 76.12864,62.4034 75.90976L62.376039999999996 75.80032L62.376039999999996 64.50064L62.376039999999996 53.146240000000006L62.4034 53.0368C62.485479999999995 52.92736,62.594919999999995 52.7632,62.731719999999996 52.735839999999996M65.9602 66.41584C65.85076 66.36112,65.6866 66.36112,65.57715999999999 66.36112C65.49508 66.36112,65.44036 66.36112,65.38564 66.36112C64.67428 66.47056,64.04499999999999 66.90832,63.60724 67.61968L63.49779999999999 67.8112L63.49779999999999 71.01232L63.49779999999999 74.26816L63.579879999999996 74.15872C65.57715999999999 71.96992,66.89044 69.4528,66.89044 67.78384L66.89044 67.72912C66.89044 66.90832,66.61684 66.55264,65.9602 66.41584" ></path>
<path stroke-width="0.3" fill="black" stroke="none" font-family="Arial" font-size="10pt" font-weight="normal" font-style="normal" x="85.9506" y="90" width="21.5" height="0.5" d="M52.950599999999994 55M52.731719999999996 37.735839999999996C52.78643999999999 37.70848,52.841159999999995 37.70848,52.92323999999999 37.70848C53.16947999999999 37.70848,53.38835999999999 37.81792,53.470439999999996 38.0368C53.49779999999999 38.146240000000006,53.49779999999999 38.146240000000006,53.49779999999999 44.521119999999996L53.49779999999999 50.950720000000004L53.52515999999999 50.86864C54.56484 49.99312,55.65924 49.55536,56.698919999999994 49.55536C57.10932 49.55536,57.51971999999999 49.610079999999996,57.930119999999995 49.77424C59.161319999999996 50.18464,59.81795999999999 51.33376,59.81795999999999 52.70176C59.81795999999999 53.41312,59.599079999999994 54.20656,59.18867999999999 55C58.58675999999999 56.0944,57.820679999999996 56.96992,55.68659999999999 58.88512L53.579879999999996 60.8824C53.196839999999995 61.26544,53.11476 61.26544,52.950599999999994 61.26544C52.704359999999994 61.26544,52.485479999999995 61.12864,52.4034 60.90976L52.376039999999996 60.80032L52.376039999999996 49.500640000000004L52.376039999999996 38.146240000000006L52.4034 38.0368C52.485479999999995 37.92736,52.594919999999995 37.7632,52.731719999999996 37.735839999999996M55.96019999999999 51.41584C55.850759999999994 51.36112,55.68659999999999 51.36112,55.57715999999999 51.36112C55.495079999999994 51.36112,55.44035999999999 51.36112,55.385639999999995 51.36112C54.674279999999996 51.47056,54.044999999999995 51.90832,53.60724 52.61968L53.49779999999999 52.8112L53.49779999999999 56.01232L53.49779999999999 59.26816L53.579879999999996 59.15872C55.57715999999999 56.96992,56.89043999999999 54.4528,56.89043999999999 52.78384L56.89043999999999 52.72912C56.89043999999999 51.90832,56.616839999999996 51.55264,55.96019999999999 51.41584" ></path>
<path stroke-width="0.3" fill="black" stroke="none" font-family="Arial" font-size="10pt" font-weight="normal" font-style="normal" x="85.9506" y="90" width="21.5" height="0.5" d="M62.950599999999994 45M62.731719999999996 27.73584C62.78643999999999 27.70848,62.841159999999995 27.70848,62.92323999999999 27.70848C63.16947999999999 27.70848,63.38835999999999 27.81792,63.470439999999996 28.0368C63.49779999999999 28.146240000000002,63.49779999999999 28.146240000000002,63.49779999999999 34.521119999999996L63.49779999999999 40.950720000000004L63.52515999999999 40.86864C64.56483999999999 39.99312,65.65924 39.55536,66.69891999999999 39.55536C67.10932 39.55536,67.51971999999999 39.610079999999996,67.93011999999999 39.77424C69.16131999999999 40.18464,69.81796 41.33376,69.81796 42.70176C69.81796 43.41312,69.59908 44.20656,69.18867999999999 45C68.58676 46.0944,67.82068 46.96992,65.6866 48.88512L63.579879999999996 50.8824C63.196839999999995 51.26544,63.11476 51.26544,62.950599999999994 51.26544C62.704359999999994 51.26544,62.485479999999995 51.12864,62.4034 50.90976L62.376039999999996 50.80032L62.376039999999996 39.500640000000004L62.376039999999996 28.146240000000002L62.4034 28.0368C62.485479999999995 27.92736,62.594919999999995 27.7632,62.731719999999996 27.73584M65.9602 41.41584C65.85076 41.36112,65.6866 41.36112,65.57715999999999 41.36112C65.49508 41.36112,65.44036 41.36112,65.38564 41.36112C64.67428 41.47056,64.04499999999999 41.90832,63.60724 42.61968L63.49779999999999 42.8112L63.49779999999999 46.01232L63.49779999999999 49.26816L63.579879999999996 49.15872C65.57715999999999 46.96992,66.89044 44.4528,66.89044 42.78384L66.89044 42.72912C66.89044 41.90832,66.61684 41.55264,65.9602 41.41584" ></path>
</g>
</g>
</svg>