<?xml version="1.0" encoding="utf-8"?>
<!DOCTYPE svg PUBLIC "-//W3C//DTD SVG 1.1//EN" "http://www.w3.org/Graphics/SVG/1.1/DTD/svg11.dtd">
<svg version="1.1" id="Layer_1" xmlns="http://www.w3.org/2000/svg"
     xmlns:xlink="http://www.w3.org/1999/xlink" x="0px" y="0px"
     width="170px" height="216px" viewBox="0 0 170 216"
     enable-background="new 0 0 170 216" xml:space="preserve"><rect stroke-width="0.3" fill="#999999" stroke="#999999" font-family="Arial" font-size="10pt" font-weight="normal" font-style="normal" x="20" y="39" width="149.5" height="1.5" ></rect>
<rect stroke-width="0.3" fill="#999999" stroke="#999999" font-family="Arial" font-size="10pt" font-weight="normal" font-style="normal" x="20" y="49" width="149.5" height="1.5" ></rect>
<rect stroke-width="0.3" fill="#999999" stroke="#999999" font-family="Arial" font-size="10pt" font-weight="normal" font-style="normal" x="20" y="59" width="149.5" height="1.5" ></rect>
<rect stroke-width="0.3" fill="#999999" stroke="#999999" font-family="Arial" font-size="10pt" font-weight="normal" font-style="normal" x="20" y="69" width="149.5" height="1.5" ></rect>
<rect stroke-width="0.3" fill="#999999" stroke="#999999" font-family="Arial" font-size="10pt" font-weight="normal" font-style="normal" x="20" y="79" width="149.5" height="1.5" ></rect>
<rect stroke-width="0.3" fill="black" stroke="black" font-family="Arial" font-size="10pt" font-weight="normal" font-style="normal" x="20" y="39" width="0.5" height="41.5" ></rect>
<rect stroke-width="0.3" fill="black" stroke="black" font-family="Arial" font-size="10pt" font-weight="normal" font-style="normal" x="170" y="39" width="0.5" height="41.5" ></rect>
<path stroke-width="0.3" fill="black" stroke="none" font-family="Arial" font-size="10pt" font-weight="normal" font-style="normal" x="170" y="39" width="0.5" height="41.5" d="M25 69M39.0544 25.8288C39.112 25.800000000000004,39.1696 25.800000000000004,39.256 25.800000000000004C39.6016 25.800000000000004,40.0048 26.088,40.580799999999996 26.808C42.9136 29.486400000000003,44.5552 34.152,44.5552 37.9536C44.5552 38.241600000000005,44.4976 38.472,44.4976 38.760000000000005C44.2384 43.2816,42.3952 46.9968,38.7376 50.510400000000004L37.7584 51.4608L37.4128 51.8352L37.4128 51.9504L37.6144 52.8144L37.931200000000004 54.3696L38.248 55.8096C38.68 57.768,38.8528 58.775999999999996,38.8528 58.775999999999996C38.8528 58.775999999999996,38.8528 58.775999999999996,38.8528 58.775999999999996C38.8528 58.775999999999996,38.968 58.775999999999996,39.112 58.7472C39.256 58.7472,39.7168 58.6896,40.2064 58.6896C40.552 58.6896,40.8976 58.7472,41.0704 58.7472C45.1312 59.2656,48.270399999999995 62.1744,49.1632 66.264C49.336 66.9264,49.3936 67.6464,49.3936 68.3664C49.3936 72.2544,47.0608 75.9696,43.172799999999995 77.7264C42.9424 77.8704,42.855999999999995 77.89920000000001,42.855999999999995 77.89920000000001L42.855999999999995 77.928C42.855999999999995 77.928,43.028800000000004 78.5904,43.172799999999995 79.3392L43.6048 81.528L44.007999999999996 83.2848C44.2384 84.408,44.3536 85.2144,44.3536 85.9344C44.3536 86.568,44.2672 87.144,44.1232 87.8064C43.144 91.8096,39.6592 94.2,36.0304 94.2C34.2448 94.2,32.4016 93.624,30.788800000000002 92.328C29.3488 91.11840000000001,28.7152 90.024,28.7152 88.584C28.7152 86.0496,30.759999999999998 84.264,32.8912 84.264C33.64 84.264,34.3888 84.4944,35.1088 84.9264C36.3184 85.7616,36.8656 87.0288,36.8656 88.2672C36.8656 90.168,35.5408 92.03999999999999,33.2656 92.184L33.0352 92.184L33.208 92.2992C34.1584 92.7024,35.1088 92.904,36.0304 92.904C38.3632 92.904,40.552 91.72319999999999,41.8768 89.6784C42.6256 88.5264,43.028800000000004 87.1728,43.028800000000004 85.8192C43.028800000000004 85.3008,42.9424 84.7824,42.827200000000005 84.2064C42.827200000000005 84.1488,42.7408 83.688,42.6256 83.256C41.992000000000004 80.1456,41.617599999999996 78.3312,41.617599999999996 78.3312C41.617599999999996 78.3312,41.617599999999996 78.3312,41.617599999999996 78.3312C41.56 78.3312,41.4448 78.3312,41.3584 78.3888C41.0704 78.4464,40.4656 78.5904,40.2064 78.6192C39.5728 78.7056,38.968 78.7344,38.391999999999996 78.7344C32.7472 78.7344,27.5056 74.9328,25.6912 69.3168C25.2304 67.8192,24.9712 66.3216,24.9712 64.824C24.9712 61.8288,25.9216 58.8912,27.7648 56.2704C29.7808 53.419200000000004,31.7968 50.971199999999996,34.2736 48.436800000000005L35.1376 47.544L34.936 46.4784L34.5616 44.7216L34.072 42.4752C33.928 41.64,33.7552 40.833600000000004,33.7264 40.6608C33.5824 39.7104,33.496 38.7888,33.496 37.8384C33.496 34.2096,34.6768 30.724800000000002,36.8944 27.931200000000004C37.556799999999996 27.0672,38.7376 25.9152,39.0544 25.8288M40.8112 31.5312C40.7536 31.5312,40.6672 31.5312,40.580799999999996 31.5312C39.4 31.5312,37.873599999999996 32.6256,36.8368 34.2384C35.7712 35.8224,35.224000000000004 37.924800000000005,35.224000000000004 40.0848C35.224000000000004 40.6608,35.2528 41.2656,35.3392 41.870400000000004C35.4256 42.302400000000006,35.4544 42.5904,35.684799999999996 43.6272L36.088 45.4416C36.203199999999995 45.9888,36.2896 46.4208,36.2896 46.4784L36.2896 46.4784C36.3184 46.4784,37.2112 45.4992,37.4992 45.1536C40.3792 41.8992,42.1072 38.472,42.4816 35.448C42.510400000000004 35.160000000000004,42.510400000000004 34.9296,42.510400000000004 34.641600000000004C42.510400000000004 33.7488,42.3952 32.8848,42.1936 32.424C41.9632 31.9632,41.4448 31.5888,40.8112 31.5312M36.4624 53.7936C36.4048 53.3904,36.3184 53.0736,36.3184 53.016C36.3184 53.016,36.3184 53.016,36.2896 53.016C36.232 53.016,34.9936 54.456,34.129599999999996 55.464C32.6608 57.2496,31.1056 59.3808,30.472 60.4176C29.2624 62.4624,28.6576 64.7376,28.6576 66.984C28.6576 68.4528,28.9456 69.864,29.464 71.2176C31.019199999999998 75.2208,34.5904 77.7264,38.4784 77.7264C38.9392 77.7264,39.4576 77.6976,39.947199999999995 77.6112C40.580799999999996 77.496,41.3584 77.2656,41.3584 77.1792L41.3584 77.1792C41.3584 77.1792,41.300799999999995 76.8912,41.2144 76.5744L40.3792 72.456L39.7168 69.3744L39.2848 67.2432L38.824 65.1696C38.5936 63.931200000000004,38.5072 63.6144,38.5072 63.6144C38.5072 63.6144,38.5072 63.5856,38.4784 63.5856C38.3056 63.5856,37.384 64.0464,36.9808 64.3344C35.4832 65.3712,34.705600000000004 67.0128,34.705600000000004 68.6256C34.705600000000004 70.152,35.4544 71.6784,36.8944 72.5712C37.2112 72.7728,37.3264 72.9456,37.3264 73.1472C37.3264 73.176,37.3264 73.2624,37.3264 73.2912C37.2688 73.6368,37.0672 73.7808,36.7792 73.7808C36.664 73.7808,36.519999999999996 73.752,36.3472 73.6656C33.6976 72.5136,31.912 69.7776,31.912 66.7824L31.912 66.7824C31.912 63.3264,34.072 60.3312,37.384 59.1504L37.556799999999996 59.0928L37.2688 57.6528L36.4624 53.7936M40.782399999999996 63.4128C40.552 63.384,40.321600000000004 63.384,40.1488 63.384C40.0912 63.384,40.0048 63.384,39.947199999999995 63.384L39.803200000000004 63.384L39.9184 63.9024L40.5232 66.7248L40.8976 68.568L41.300799999999995 70.3824L42.1072 74.3856L42.424 75.912C42.5392 76.3152,42.5968 76.6608,42.6256 76.6608C42.6256 76.6608,42.6256 76.6608,42.6256 76.6608C42.654399999999995 76.6608,43.144 76.3728,43.4608 76.1424C44.9296 75.1056,46.024 73.4928,46.4272 71.8224C46.571200000000005 71.2752,46.6288 70.6992,46.6288 70.152C46.6288 66.8112,44.152 63.7872,40.782399999999996 63.4128" ></path>
<rect stroke-width="0.3" fill="#999999" stroke="#999999" font-family="Arial" font-size="10pt" font-weight="normal" font-style="normal" x="20" y="134" width="149.5" height="1.5" ></rect>
<rect stroke-width="0.3" fill="#999999" stroke="#999999" font-family="Arial" font-size="10pt" font-weight="normal" font-style="normal" x="20" y="144" width="149.5" height="1.5" ></rect>
<rect stroke-width="0.3" fill="#999999" stroke="#999999" font-family="Arial" font-size="10pt" font-weight="normal" font-style="normal" x="20" y="154" width="149.5" height="1.5" ></rect>
<rect stroke-width="0.3" fill="#999999" stroke="#999999" font-family="Arial" font-size="10pt" font-weight="normal" font-style="normal" x="20" y="164" width="149.5" height="1.5" ></rect>
<rect stroke-width="0.3" fill="#999999" stroke="#999999" font-family="Arial" font-size="10pt" font-weight="normal" font-style="normal" x="20" y="174" width="149.5" height="1.5" ></rect>
<rect stroke-width="0.3" fill="black" stroke="black" font-family="Arial" font-size="10pt" font-weight="normal" font-style="normal" x="20" y="134" width="0.5" height="41.5" ></rect>
<rect stroke-width="0.3" fill="black" stroke="black" font-family="Arial" font-size="10pt" font-weight="normal" font-style="normal" x="170" y="134" width="0.5" height="41.5" ></rect>
<path stroke-width="0.3" fill="black" stroke="none" font-family="Arial" font-size="10pt" font-weight="normal" font-style="normal" x="170" y="134" width="0.5" height="41.5" d="M25 144M33.8416 133.9488C34.072 133.8912,34.3024 133.8912,34.5616 133.8912C35.5696 133.8912,36.7504 134.0064,37.7584 134.208C42.4816 135.1872,45.736000000000004 138.38400000000001,46.3408 142.6464C46.398399999999995 143.1072,46.4272 143.5392,46.4272 144C46.4272 146.592,45.5344 149.9328,44.007999999999996 152.7264C40.3792 159.2928,33.7552 164.016,25.8064 165.744C25.6624 165.744,25.5472 165.7728,25.4032 165.7728C25.1152 165.7728,24.9712 165.6,24.9712 165.3408C24.9712 165.0528,25.0288 164.9664,25.6048 164.736C34.705600000000004 161.3088,40.782399999999996 153.9072,41.3296 145.6128C41.3584 145.1808,41.3584 144.6912,41.3584 144.3168C41.3584 140.2848,40.12 137.2896,37.7296 135.792C36.6928 135.1296,35.5696 134.8128,34.36 134.8128C31.6816 134.8128,28.9456 136.3392,27.6784 138.9024C27.6208 139.104,27.4192 139.536,27.4192 139.5648C27.4192 139.5648,27.4192 139.5648,27.4192 139.5648C27.4192 139.5648,27.448 139.536,27.534399999999998 139.5072C28.168 139.104,28.8592 138.9024,29.5792 138.9024C30.5872 138.9024,31.6528 139.3344,32.4016 140.1408C33.0928 140.8896,33.4672 141.8976,33.4672 142.8192C33.4672 144.6912,32.0848 146.592,29.9248 146.7936C29.7808 146.7936,29.6368 146.8224,29.4928 146.8224C27.1024 146.8224,25.1728 144.6336,25.1728 141.8688C25.1728 141.8112,25.1728 141.7248,25.1728 141.696C25.288 137.5776,29.0608 134.208,33.8416 133.9488M49.1632 137.808C49.2208 137.7792,49.2496 137.7792,49.336 137.7792C49.5376 137.7792,49.768 137.808,49.825599999999994 137.8656C50.5456 138.0672,50.8912 138.7008,50.8912 139.3056C50.8912 139.824,50.632 140.3424,50.1136 140.6304C49.912 140.7744,49.6528 140.8032,49.3936 140.8032C48.9904 140.8032,48.5584 140.6304,48.270399999999995 140.256C48.04 139.968,47.9248 139.6512,47.9248 139.3344C47.9248 138.6144,48.3856 137.8944,49.1632 137.808M49.1632 147.2256C49.2208 147.2256,49.2496 147.2256,49.336 147.2256C49.5376 147.2256,49.768 147.2544,49.825599999999994 147.312C50.5456 147.5136,50.8912 148.1472,50.8912 148.752C50.8912 149.2704,50.632 149.7888,50.1136 150.048C49.912 150.192,49.6528 150.2496,49.3936 150.2496C48.9904 150.2496,48.5584 150.048,48.270399999999995 149.7024C48.04 149.4144,47.9248 149.0976,47.9248 148.752C47.9248 148.032,48.3856 147.3408,49.1632 147.2256" ></path>
<path stroke-width="0.3" fill="black" stroke="none" font-family="Arial" font-size="10pt" font-weight="normal" font-style="normal" x="170" y="134" width="0.5" height="41.5" d="M18 39C-4.800000000000001 66.4,31.200000000000003 89.005,6 107.5C31.200000000000003 125.995,-4.800000000000001 148.6,18 176C-6 148.6,22.8 125.995,6 107.5C22.8 89.005,-6 66.4,18 39" ></path>
<path stroke-width="1" fill="none" stroke="black" font-family="Arial" font-size="10pt" font-weight="normal" font-style="normal" x="170" y="134" width="0.5" height="41.5" d="M18 39C-4.800000000000001 66.4,31.200000000000003 89.005,6 107.5C31.200000000000003 125.995,-4.800000000000001 148.6,18 176C-6 148.6,22.8 125.995,6 107.5C22.8 89.005,-6 66.4,18 39" ></path>
<rect stroke-width="0.3" fill="black" stroke="black" font-family="Arial" font-size="10pt" font-weight="normal" font-style="normal" x="20" y="39" width="0.5" height="136.5" ></rect>
<rect stroke-width="0.3" fill="black" stroke="black" font-family="Arial" font-size="10pt" font-weight="normal" font-style="normal" x="165" y="39" width="0.5" height="136.5" ></rect>
<rect stroke-width="0.3" fill="black" stroke="black" font-family="Arial" font-size="10pt" font-weight="normal" font-style="normal" x="168" y="39" width="2.5" height="136.5" ></rect>
<g class="vf-stavenote" ><g class="vf-note" pointer-events="bounding-box" ><g class="vf-notehead" pointer-events="bounding-box" ><path stroke-width="0.3" fill="black" stroke="none" font-family="Arial" font-size="10pt" font-weight="normal" font-style="normal" x="168" y="39" width="2.5" height="136.5" d="M82.9506 50M82.9506 52.1924L82.9506 50L88.5702 50L94.21499999999999 50L94.21499999999999 52.1924L94.21499999999999 54.3848L88.5702 54.3848L82.9506 54.3848L82.9506 52.1924" ></path>
</g>
</g>
<g class="vf-modifiers" ></g>
</g>
<rect stroke-width="0.3" fill="black" stroke="black" font-family="Arial" font-size="10pt" font-weight="normal" font-style="normal" x="79.9506" y="185" width="21.5" height="0.5" ></rect>
<rect stroke-width="0.3" fill="black" stroke="black" font-family="Arial" font-size="10pt" font-weight="normal" font-style="normal" x="79.9506" y="195" width="21.5" height="0.5" ></rect>
<rect stroke-width="0.3" fill="black" stroke="black" font-family="Arial" font-size="10pt" font-weight="normal" font-style="normal" x="79.9506" y="205" width="21.5" height="0.5" ></rect>
<g class="vf-stavenote" ><g class="vf-note" pointer-events="bounding-box" ><g class="vf-notehead" pointer-events="bounding-box" ><rect stroke-width="0.3" fill="black" stroke="black" font-family="Arial" font-size="10pt" font-weight="normal" font-style="normal" x="79.9506" y="205" width="21.5" height="0.5" ></rect>
<path stroke-width="0.3" fill="black" stroke="none" font-family="Arial" font-size="10pt" font-weight="normal" font-style="normal" x="79.9506" y="205" width="21.5" height="0.5" d="M82.9506 205M89.85539999999999 200.3632C90.1326 200.3128,90.40979999999999 200.3128,90.687 200.3128C94.6686 200.3128,97.99499999999999 202.0768,98.4738 204.4456C98.499 204.6724,98.54939999999999 204.874,98.54939999999999 205.0252C98.54939999999999 207.6208,95.12219999999999 209.7124,90.7122 209.7124C86.3022 209.7124,82.9506 207.5704,82.9506 205.0252C82.9506 204.7228,82.97579999999999 204.4204,83.0766 204.0928C83.6814 202.102,86.5038 200.5648,89.85539999999999 200.3632M90.23339999999999 200.9428C90.1074 200.9176,89.931 200.9176,89.80499999999999 200.9176C88.2174 200.9176,87.2598 202.2784,87.2598 203.9668C87.2598 204.874,87.53699999999999 205.8568,88.11659999999999 206.8396C89.07419999999999 208.3516,90.4602 209.1076,91.6446 209.1076C92.65259999999999 209.1076,93.5346 208.5784,93.9378 207.4696C94.1142 207.016,94.18979999999999 206.5624,94.18979999999999 206.0836C94.18979999999999 203.8156,92.451 201.2956,90.23339999999999 200.9428" ></path>
</g>
<g class="vf-notehead" pointer-events="bounding-box" ><rect stroke-width="0.3" fill="black" stroke="black" font-family="Arial" font-size="10pt" font-weight="normal" font-style="normal" x="79.9506" y="185" width="21.5" height="0.5" ></rect>
<path stroke-width="0.3" fill="black" stroke="none" font-family="Arial" font-size="10pt" font-weight="normal" font-style="normal" x="79.9506" y="185" width="21.5" height="0.5" d="M82.9506 190M89.85539999999999 185.3632C90.1326 185.3128,90.40979999999999 185.3128,90.687 185.3128C94.6686 185.3128,97.99499999999999 187.0768,98.4738 189.4456C98.499 189.6724,98.54939999999999 189.874,98.54939999999999 190.0252C98.54939999999999 192.6208,95.12219999999999 194.7124,90.7122 194.7124C86.3022 194.7124,82.9506 192.5704,82.9506 190.0252C82.9506 189.7228,82.97579999999999 189.4204,83.0766 189.0928C83.6814 187.102,86.5038 185.5648,89.85539999999999 185.3632M90.23339999999999 185.9428C90.1074 185.9176,89.931 185.9176,89.80499999999999 185.9176C88.2174 185.9176,87.2598 187.2784,87.2598 188.9668C87.2598 189.874,87.53699999999999 190.8568,88.11659999999999 191.8396C89.07419999999999 193.3516,90.4602 194.1076,91.6446 194.1076C92.65259999999999 194.1076,93.5346 193.5784,93.9378 192.4696C94.1142 192.016,94.18979999999999 191.5624,94.18979999999999 191.0836C94.18979999999999 188.8156,92.451 186.2956,90.23339999999999 185.9428" ></path>
</g>
<g class="vf-notehead" pointer-events="bounding-box" ><rect stroke-width="0.3" fill="black" stroke="black" font-family="Arial" font-size="10pt" font-weight="normal" font-style="normal" x="95.9506" y="185" width="21.5" height="0.5" ></rect>
<path stroke-width="0.3" fill="black" stroke="none" font-family="Arial" font-size="10pt" font-weight="normal" font-style="normal" x="95.9506" y="185" width="21.5" height="0.5" d="M98.9506 185M105.85539999999999 180.3632C106.1326 180.3128,106.40979999999999 180.3128,106.687 180.3128C110.6686 180.3128,113.99499999999999 182.0768,114.4738 184.4456C114.499 184.6724,114.54939999999999 184.874,114.54939999999999 185.0252C114.54939999999999 187.6208,111.12219999999999 189.7124,106.7122 189.7124C102.3022 189.7124,98.9506 187.5704,98.9506 185.0252C98.9506 184.7228,98.97579999999999 184.4204,99.0766 184.0928C99.6814 182.102,102.5038 180.5648,105.85539999999999 180.3632M106.23339999999999 180.9428C106.1074 180.9176,105.931 180.9176,105.80499999999999 180.9176C104.2174 180.9176,103.2598 182.2784,103.2598 183.9668C103.2598 184.874,103.53699999999999 185.8568,104.11659999999999 186.8396C105.07419999999999 188.3516,106.4602 189.1076,107.6446 189.1076C108.65259999999999 189.1076,109.5346 188.5784,109.9378 187.4696C110.1142 187.016,110.18979999999999 186.5624,110.18979999999999 186.0836C110.18979999999999 183.8156,108.451 181.2956,106.23339999999999 180.9428" ></path>
</g>
<g class="vf-notehead" pointer-events="bounding-box" ><path stroke-width="0.3" fill="black" stroke="none" font-family="Arial" font-size="10pt" font-weight="normal" font-style="normal" x="95.9506" y="185" width="21.5" height="0.5" d="M82.9506 175M89.85539999999999 170.3632C90.1326 170.3128,90.40979999999999 170.3128,90.687 170.3128C94.6686 170.3128,97.99499999999999 172.0768,98.4738 174.4456C98.499 174.6724,98.54939999999999 174.874,98.54939999999999 175.0252C98.54939999999999 177.6208,95.12219999999999 179.7124,90.7122 179.7124C86.3022 179.7124,82.9506 177.5704,82.9506 175.0252C82.9506 174.7228,82.97579999999999 174.4204,83.0766 174.0928C83.6814 172.102,86.5038 170.5648,89.85539999999999 170.3632M90.23339999999999 170.9428C90.1074 170.9176,89.931 170.9176,89.80499999999999 170.9176C88.2174 170.9176,87.2598 172.2784,87.2598 173.9668C87.2598 174.874,87.53699999999999 175.8568,88.11659999999999 176.8396C89.07419999999999 178.3516,90.4602 179.1076,91.6446 179.1076C92.65259999999999 179.1076,93.5346 178.5784,93.9378 177.4696C94.1142 177.016,94.18979999999999 176.5624,94.18979999999999 176.0836C94.18979999999999 173.8156,92.451 171.2956,90.23339999999999 170.9428" ></path>
</g>
<g class="vf-notehead" pointer-events="bounding-box" ><path stroke-width="0.3" fill="black" stroke="none" font-family="Arial" font-size="10pt" font-weight="normal" font-style="normal" x="95.9506" y="185" width="21.5" height="0.5" d="M82.9506 165M89.85539999999999 160.3632C90.1326 160.3128,90.40979999999999 160.3128,90.687 160.3128C94.6686 160.3128,97.99499999999999 162.0768,98.4738 164.4456C98.499 164.6724,98.54939999999999 164.874,98.54939999999999 165.0252C98.54939999999999 167.6208,95.12219999999999 169.7124,90.7122 169.7124C86.3022 169.7124,82.9506 167.5704,82.9506 165.0252C82.9506 164.7228,82.97579999999999 164.4204,83.0766 164.0928C83.6814 162.102,86.5038 160.5648,89.85539999999999 160.3632M90.23339999999999 160.9428C90.1074 160.9176,89.931 160.9176,89.80499999999999 160.9176C88.2174 160.9176,87.2598 162.2784,87.2598 163.9668C87.2598 164.874,87.53699999999999 165.8568,88.11659999999999 166.8396C89.07419999999999 168.3516,90.4602 169.1076,91.6446 169.1076C92.65259999999999 169.1076,93.5346 168.5784,93.9378 167.4696C94.1142 167.016,94.18979999999999 166.5624,94.18979999999999 166.0836C94.18979999999999 163.8156,92.451 161.2956,90.23339999999999 160.9428" ></path>
</g>
<g class="vf-notehead" pointer-events="bounding-box" ><path stroke-width="0.3" fill="black" stroke="none" font-family="Arial" font-size="10pt" font-weight="normal" font-style="normal" x="95.9506" y="185" width="21.5" height="0.5" d="M98.9506 160M105.85539999999999 155.3632C106.1326 155.3128,106.40979999999999 155.3128,106.687 155.3128C110.6686 155.3128,113.99499999999999 157.0768,114.4738 159.4456C114.499 159.6724,114.54939999999999 159.874,114.54939999999999 160.0252C114.54939999999999 162.6208,111.12219999999999 164.7124,106.7122 164.7124C102.3022 164.7124,98.9506 162.5704,98.9506 160.0252C98.9506 159.7228,98.97579999999999 159.4204,99.0766 159.0928C99.6814 157.102,102.5038 155.5648,105.85539999999999 155.3632M106.23339999999999 155.9428C106.1074 155.9176,105.931 155.9176,105.80499999999999 155.9176C104.2174 155.9176,103.2598 157.2784,103.2598 158.9668C103.2598 159.874,103.53699999999999 160.8568,104.11659999999999 161.8396C105.07419999999999 163.3516,106.4602 164.1076,107.6446 164.1076C108.65259999999999 164.1076,109.5346 163.5784,109.9378 162.4696C110.1142 162.016,110.18979999999999 161.5624,110.18979999999999 161.0836C110.18979999999999 158.8156,108.451 156.2956,106.23339999999999 155.9428" ></path>
</g>
<g class="vf-notehead" pointer-events="bounding-box" ><path stroke-width="0.3" fill="black" stroke="none" font-family="Arial" font-size="10pt" font-weight="normal" font-style="normal" x="95.9506" y="185" width="21.5" height="0.5" d="M82.9506 150M89.85539999999999 145.3632C90.1326 145.3128,90.40979999999999 145.3128,90.687 145.3128C94.6686 145.3128,97.99499999999999 147.0768,98.4738 149.4456C98.499 149.6724,98.54939999999999 149.874,98.54939999999999 150.0252C98.54939999999999 152.6208,95.12219999999999 154.7124,90.7122 154.7124C86.3022 154.7124,82.9506 152.5704,82.9506 150.0252C82.9506 149.7228,82.97579999999999 149.4204,83.0766 149.0928C83.6814 147.102,86.5038 145.5648,89.85539999999999 145.3632M90.23339999999999 145.9428C90.1074 145.9176,89.931 145.9176,89.80499999999999 145.9176C88.2174 145.9176,87.2598 147.2784,87.2598 148.9668C87.2598 149.874,87.53699999999999 150.8568,88.11659999999999 151.8396C89.07419999999999 153.3516,90.4602 154.1076,91.6446 154.1076C92.65259999999999 154.1076,93.5346 153.5784,93.9378 152.4696C94.1142 152.016,94.18979999999999 151.5624,94.18979999999999 151.0836C94.18979999999999 148.8156,92.451 146.2956,90.23339999999999 145.9428" ></path>
</g>
<g class="vf-notehead" pointer-events="bounding-box" ><path stroke-width="0.3" fill="black" stroke="none" font-family="Arial" font-size="10pt" font-weight="normal" font-style="normal" x="95.9506" y="185" width="21.5" height="0.5" d="M82.9506 140M89.85539999999999 135.3632C90.1326 135.3128,90.40979999999999 135.3128,90.687 135.3128C94.6686 135.3128,97.99499999999999 137.0768,98.4738 139.4456C98.499 139.6724,98.54939999999999 139.874,98.54939999999999 140.0252C98.54939999999999 142.6208,95.12219999999999 144.7124,90.7122 144.7124C86.3022 144.7124,82.9506 142.5704,82.9506 140.0252C82.9506 139.7228,82.97579999999999 139.4204,83.0766 139.0928C83.6814 137.102,86.5038 135.5648,89.85539999999999 135.3632M90.23339999999999 135.9428C90.1074 135.9176,89.931 135.9176,89.80499999999999 135.9176C88.2174 135.9176,87.2598 137.2784,87.2598 138.9668C87.2598 139.874,87.53699999999999 140.8568,88.11659999999999 141.8396C89.07419999999999 143.3516,90.4602 144.1076,91.6446 144.1076C92.65259999999999 144.1076,93.5346 143.5784,93.9378 142.4696C94.1142 142.016,94.18979999999999 141.5624,94.18979999999999 141.0836C94.18979999999999 138.8156,92.451 136.2956,90.23339999999999 135.9428" ></path>
</g>
</g>
<g class="vf-modifiers" ><path stroke-width="0.3" fill="black" stroke="none" font-family="Arial" font-size="10pt" font-weight="normal" font-style="normal" x="95.9506" y="185" width="21.5" height="0.5" d="M72.9506 190M72.73172 172.73584C72.78644 172.70848,72.84115999999999 172.70848,72.92323999999999 172.70848C73.16948 172.70848,73.38835999999999 172.81792000000002,73.47044 173.0368C73.4978 173.14624,73.4978 173.14624,73.4978 179.52112L73.4978 185.95072L73.52516 185.86864C74.56483999999999 184.99312,75.65924 184.55536,76.69891999999999 184.55536C77.10932 184.55536,77.51971999999999 184.61008,77.93011999999999 184.77424C79.16131999999999 185.18464,79.81796 186.33376,79.81796 187.70176C79.81796 188.41312,79.59908 189.20656,79.18867999999999 190C78.58676 191.0944,77.82068 191.96992,75.6866 193.88512L73.57987999999999 195.8824C73.19684 196.26544,73.11475999999999 196.26544,72.9506 196.26544C72.70436 196.26544,72.48548 196.12864,72.40339999999999 195.90976L72.37603999999999 195.80032L72.37603999999999 184.50064L72.37603999999999 173.14624L72.40339999999999 173.0368C72.48548 172.92736,72.59491999999999 172.7632,72.73172 172.73584M75.9602 186.41584C75.85076 186.36112,75.6866 186.36112,75.57715999999999 186.36112C75.49508 186.36112,75.44036 186.36112,75.38564 186.36112C74.67428 186.47056,74.04499999999999 186.90832,73.60723999999999 187.61968L73.4978 187.8112L73.4978 191.01232L73.4978 194.26816L73.57987999999999 194.15872C75.57715999999999 191.96992,76.89044 189.4528,76.89044 187.78384L76.89044 187.72912C76.89044 186.90832,76.61684 186.55264,75.9602 186.41584" ></path>
<path stroke-width="0.3" fill="black" stroke="none" font-family="Arial" font-size="10pt" font-weight="normal" font-style="normal" x="95.9506" y="185" width="21.5" height="0.5" d="M72.9506 165M72.73172 147.73584C72.78644 147.70848,72.84115999999999 147.70848,72.92323999999999 147.70848C73.16948 147.70848,73.38835999999999 147.81792000000002,73.47044 148.0368C73.4978 148.14624,73.4978 148.14624,73.4978 154.52112L73.4978 160.95072L73.52516 160.86864C74.56483999999999 159.99312,75.65924 159.55536,76.69891999999999 159.55536C77.10932 159.55536,77.51971999999999 159.61008,77.93011999999999 159.77424C79.16131999999999 160.18464,79.81796 161.33376,79.81796 162.70176C79.81796 163.41312,79.59908 164.20656,79.18867999999999 165C78.58676 166.0944,77.82068 166.96992,75.6866 168.88512L73.57987999999999 170.8824C73.19684 171.26544,73.11475999999999 171.26544,72.9506 171.26544C72.70436 171.26544,72.48548 171.12864,72.40339999999999 170.90976L72.37603999999999 170.80032L72.37603999999999 159.50064L72.37603999999999 148.14624L72.40339999999999 148.0368C72.48548 147.92736,72.59491999999999 147.7632,72.73172 147.73584M75.9602 161.41584C75.85076 161.36112,75.6866 161.36112,75.57715999999999 161.36112C75.49508 161.36112,75.44036 161.36112,75.38564 161.36112C74.67428 161.47056,74.04499999999999 161.90832,73.60723999999999 162.61968L73.4978 162.8112L73.4978 166.01232L73.4978 169.26816L73.57987999999999 169.15872C75.57715999999999 166.96992,76.89044 164.4528,76.89044 162.78384L76.89044 162.72912C76.89044 161.90832,76.61684 161.55264,75.9602 161.41584" ></path>
<path stroke-width="0.3" fill="black" stroke="none" font-family="Arial" font-size="10pt" font-weight="normal" font-style="normal" x="95.9506" y="185" width="21.5" height="0.5" d="M62.950599999999994 150M62.731719999999996 132.73584C62.78643999999999 132.70848,62.841159999999995 132.70848,62.92323999999999 132.70848C63.16947999999999 132.70848,63.38835999999999 132.81792000000002,63.470439999999996 133.0368C63.49779999999999 133.14624,63.49779999999999 133.14624,63.49779999999999 139.52112L63.49779999999999 145.95072L63.52515999999999 145.86864C64.56483999999999 144.99312,65.65924 144.55536,66.69891999999999 144.55536C67.10932 144.55536,67.51971999999999 144.61008,67.93011999999999 144.77424C69.16131999999999 145.18464,69.81796 146.33376,69.81796 147.70176C69.81796 148.41312,69.59908 149.20656,69.18867999999999 150C68.58676 151.0944,67.82068 151.96992,65.6866 153.88512L63.579879999999996 155.8824C63.196839999999995 156.26544,63.11476 156.26544,62.950599999999994 156.26544C62.704359999999994 156.26544,62.485479999999995 156.12864,62.4034 155.90976L62.376039999999996 155.80032L62.376039999999996 144.50064L62.376039999999996 133.14624L62.4034 133.0368C62.485479999999995 132.92736,62.594919999999995 132.7632,62.731719999999996 132.73584M65.9602 146.41584C65.85076 146.36112,65.6866 146.36112,65.57715999999999 146.36112C65.49508 146.36112,65.44036 146.36112,65.38564 146.36112C64.67428 146.47056,64.04499999999999 146.90832,63.60724 147.61968L63.49779999999999 147.8112L63.49779999999999 151.01232L63.49779999999999 154.26816L63.579879999999996 154.15872C65.57715999999999 151.96992,66.89044 149.4528,66.89044 147.78384L66.89044 147.72912C66.89044 146.90832,66.61684 146.55264,65.9602 146.41584" ></path>
<path stroke-width="0.3" fill="black" stroke="none" font-family="Arial" font-size="10pt" font-weight="normal" font-style="normal" x="95.9506" y="185" width="21.5" height="0.5" d="M72.9506 140M72.73172 122.73584C72.78644 122.70848000000001,72.84115999999999 122.70848000000001,72.92323999999999 122.70848000000001C73.16948 122.70848000000001,73.38835999999999 122.81792,73.47044 123.0368C73.4978 123.14624,73.4978 123.14624,73.4978 129.52112L73.4978 135.95072L73.52516 135.86864C74.56483999999999 134.99312,75.65924 134.55536,76.69891999999999 134.55536C77.10932 134.55536,77.51971999999999 134.61008,77.93011999999999 134.77424C79.16131999999999 135.18464,79.81796 136.33376,79.81796 137.70176C79.81796 138.41312,79.59908 139.20656,79.18867999999999 140C78.58676 141.0944,77.82068 141.96992,75.6866 143.88512L73.57987999999999 145.8824C73.19684 146.26544,73.11475999999999 146.26544,72.9506 146.26544C72.70436 146.26544,72.48548 146.12864,72.40339999999999 145.90976L72.37603999999999 145.80032L72.37603999999999 134.50064L72.37603999999999 123.14624L72.40339999999999 123.0368C72.48548 122.92736,72.59491999999999 122.7632,72.73172 122.73584M75.9602 136.41584C75.85076 136.36112,75.6866 136.36112,75.57715999999999 136.36112C75.49508 136.36112,75.44036 136.36112,75.38564 136.36112C74.67428 136.47056,74.04499999999999 136.90832,73.60723999999999 137.61968L73.4978 137.8112L73.4978 141.01232L73.4978 144.26816L73.57987999999999 144.15872C75.57715999999999 141.96992,76.89044 139.4528,76.89044 137.78384L76.89044 137.72912C76.89044 136.90832,76.61684 136.55264,75.9602 136.41584" ></path>
</g>
</g>
</svg>