<svg id="todo1" class="todo2" version="1.1" xmlns="http://www.w3.org/2000/svg" xmlns:xlink="http://www.w3.org/1999/xlink" x="0" y="0" width="70" height="70" viewBox="-7 -7 114 114">
  <!-- Loaded SVG font from path "./svg-fonts/Enhanced-CharterRegular.svg" -->
  <rect x="8" y="8" width="86" height="86" stroke="black" stroke-width="4" fill="none"/>
  <path style="fill: black" d="M20.02016,65.60224l3.94944-0.2992l0.95744-0.95744l0-31.89472l-0.95744-0.83776l-3.94944-0.2992l0-2.93216l17.89216,0l0,2.93216l-4.00928,0.2992l-0.95744,0.83776l0,31.89472l0.95744,0.95744l4.00928,0.2992l0,2.93216l-17.89216,0l0-2.93216zM41.20352,65.60224l3.94944-0.2992l0.95744-0.95744l0-31.89472l-0.95744-0.83776l-3.94944-0.2992l0-2.93216l17.89216,0l0,2.93216l-4.00928,0.2992l-0.95744,0.83776l0,31.89472l0.95744,0.95744l4.00928,0.2992l0,2.93216l-17.89216,0l0-2.93216zM62.38688,65.60224l3.94944-0.2992l0.95744-0.95744l0-31.89472l-0.95744-0.83776l-3.94944-0.2992l0-2.93216l17.89216,0l0,2.93216l-4.00928,0.2992l-0.95744,0.83776l0,31.89472l0.95744,0.95744l4.00928,0.2992l0,2.93216l-17.89216,0l0-2.93216z"/>
  <g/>
</svg>