<?xml version="1.0" encoding="utf-8"?>
<!DOCTYPE svg PUBLIC "-//W3C//DTD SVG 1.1//EN" "http://www.w3.org/Graphics/SVG/1.1/DTD/svg11.dtd">
<svg version="1.1" id="Layer_1" xmlns="http://www.w3.org/2000/svg"
     xmlns:xlink="http://www.w3.org/1999/xlink" x="0px" y="0px"
     width="363px" height="113px" viewBox="0 0 363 113"
     enable-background="new 0 0 363 113" xml:space="preserve"><rect stroke-width="0.3" fill="#999999" stroke="#999999" font-family="Arial" font-size="10pt" font-weight="normal" font-style="normal" x="10" y="39" width="342.5" height="1.5" ></rect>
<rect stroke-width="0.3" fill="#999999" stroke="#999999" font-family="Arial" font-size="10pt" font-weight="normal" font-style="normal" x="10" y="49" width="342.5" height="1.5" ></rect>
<rect stroke-width="0.3" fill="#999999" stroke="#999999" font-family="Arial" font-size="10pt" font-weight="normal" font-style="normal" x="10" y="59" width="342.5" height="1.5" ></rect>
<rect stroke-width="0.3" fill="#999999" stroke="#999999" font-family="Arial" font-size="10pt" font-weight="normal" font-style="normal" x="10" y="69" width="342.5" height="1.5" ></rect>
<rect stroke-width="0.3" fill="#999999" stroke="#999999" font-family="Arial" font-size="10pt" font-weight="normal" font-style="normal" x="10" y="79" width="342.5" height="1.5" ></rect>
<rect stroke-width="0.3" fill="black" stroke="black" font-family="Arial" font-size="10pt" font-weight="normal" font-style="normal" x="10" y="39" width="0.5" height="41.5" ></rect>
<rect stroke-width="0.3" fill="black" stroke="black" font-family="Arial" font-size="10pt" font-weight="normal" font-style="normal" x="353" y="39" width="0.5" height="41.5" ></rect>
<path stroke-width="0.3" fill="black" stroke="none" font-family="Arial" font-size="10pt" font-weight="normal" font-style="normal" x="353" y="39" width="0.5" height="41.5" d="M15 69M29.0544 25.8288C29.112000000000002 25.800000000000004,29.1696 25.800000000000004,29.256 25.800000000000004C29.601599999999998 25.800000000000004,30.0048 26.088,30.5808 26.808C32.9136 29.486400000000003,34.5552 34.152,34.5552 37.9536C34.5552 38.241600000000005,34.4976 38.472,34.4976 38.760000000000005C34.2384 43.2816,32.3952 46.9968,28.7376 50.510400000000004L27.7584 51.4608L27.412799999999997 51.8352L27.412799999999997 51.9504L27.6144 52.8144L27.9312 54.3696L28.247999999999998 55.8096C28.68 57.768,28.852800000000002 58.775999999999996,28.852800000000002 58.775999999999996C28.852800000000002 58.775999999999996,28.852800000000002 58.775999999999996,28.852800000000002 58.775999999999996C28.852800000000002 58.775999999999996,28.968 58.775999999999996,29.112000000000002 58.7472C29.256 58.7472,29.7168 58.6896,30.206400000000002 58.6896C30.552 58.6896,30.897599999999997 58.7472,31.0704 58.7472C35.1312 59.2656,38.270399999999995 62.1744,39.1632 66.264C39.336 66.9264,39.3936 67.6464,39.3936 68.3664C39.3936 72.2544,37.0608 75.9696,33.172799999999995 77.7264C32.9424 77.8704,32.855999999999995 77.89920000000001,32.855999999999995 77.89920000000001L32.855999999999995 77.928C32.855999999999995 77.928,33.028800000000004 78.5904,33.172799999999995 79.3392L33.6048 81.528L34.007999999999996 83.2848C34.2384 84.408,34.3536 85.2144,34.3536 85.9344C34.3536 86.568,34.2672 87.144,34.1232 87.8064C33.144 91.8096,29.6592 94.2,26.0304 94.2C24.244799999999998 94.2,22.401600000000002 93.624,20.788800000000002 92.328C19.3488 91.11840000000001,18.7152 90.024,18.7152 88.584C18.7152 86.0496,20.759999999999998 84.264,22.891199999999998 84.264C23.64 84.264,24.3888 84.4944,25.108800000000002 84.9264C26.3184 85.7616,26.8656 87.0288,26.8656 88.2672C26.8656 90.168,25.540799999999997 92.03999999999999,23.2656 92.184L23.0352 92.184L23.208 92.2992C24.1584 92.7024,25.108800000000002 92.904,26.0304 92.904C28.3632 92.904,30.552 91.72319999999999,31.8768 89.6784C32.6256 88.5264,33.028800000000004 87.1728,33.028800000000004 85.8192C33.028800000000004 85.3008,32.9424 84.7824,32.827200000000005 84.2064C32.827200000000005 84.1488,32.7408 83.688,32.6256 83.256C31.992 80.1456,31.6176 78.3312,31.6176 78.3312C31.6176 78.3312,31.6176 78.3312,31.6176 78.3312C31.56 78.3312,31.4448 78.3312,31.3584 78.3888C31.0704 78.4464,30.465600000000002 78.5904,30.206400000000002 78.6192C29.5728 78.7056,28.968 78.7344,28.392 78.7344C22.7472 78.7344,17.5056 74.9328,15.6912 69.3168C15.2304 67.8192,14.9712 66.3216,14.9712 64.824C14.9712 61.8288,15.9216 58.8912,17.7648 56.2704C19.7808 53.419200000000004,21.7968 50.971199999999996,24.273600000000002 48.436800000000005L25.1376 47.544L24.936 46.4784L24.5616 44.7216L24.072 42.4752C23.927999999999997 41.64,23.755200000000002 40.833600000000004,23.726399999999998 40.6608C23.5824 39.7104,23.496000000000002 38.7888,23.496000000000002 37.8384C23.496000000000002 34.2096,24.6768 30.724800000000002,26.894399999999997 27.931200000000004C27.5568 27.0672,28.7376 25.9152,29.0544 25.8288M30.8112 31.5312C30.7536 31.5312,30.6672 31.5312,30.5808 31.5312C29.4 31.5312,27.8736 32.6256,26.8368 34.2384C25.7712 35.8224,25.224 37.924800000000005,25.224 40.0848C25.224 40.6608,25.2528 41.2656,25.339199999999998 41.870400000000004C25.4256 42.302400000000006,25.4544 42.5904,25.6848 43.6272L26.088 45.4416C26.2032 45.9888,26.2896 46.4208,26.2896 46.4784L26.2896 46.4784C26.3184 46.4784,27.211199999999998 45.4992,27.499200000000002 45.1536C30.379199999999997 41.8992,32.1072 38.472,32.4816 35.448C32.510400000000004 35.160000000000004,32.510400000000004 34.9296,32.510400000000004 34.641600000000004C32.510400000000004 33.7488,32.3952 32.8848,32.1936 32.424C31.9632 31.9632,31.4448 31.5888,30.8112 31.5312M26.4624 53.7936C26.4048 53.3904,26.3184 53.0736,26.3184 53.016C26.3184 53.016,26.3184 53.016,26.2896 53.016C26.232 53.016,24.9936 54.456,24.1296 55.464C22.660800000000002 57.2496,21.1056 59.3808,20.472 60.4176C19.2624 62.4624,18.6576 64.7376,18.6576 66.984C18.6576 68.4528,18.9456 69.864,19.464 71.2176C21.019199999999998 75.2208,24.5904 77.7264,28.4784 77.7264C28.9392 77.7264,29.4576 77.6976,29.9472 77.6112C30.5808 77.496,31.3584 77.2656,31.3584 77.1792L31.3584 77.1792C31.3584 77.1792,31.3008 76.8912,31.2144 76.5744L30.379199999999997 72.456L29.7168 69.3744L29.284799999999997 67.2432L28.823999999999998 65.1696C28.593600000000002 63.931200000000004,28.507199999999997 63.6144,28.507199999999997 63.6144C28.507199999999997 63.6144,28.507199999999997 63.5856,28.4784 63.5856C28.3056 63.5856,27.384 64.0464,26.980800000000002 64.3344C25.4832 65.3712,24.7056 67.0128,24.7056 68.6256C24.7056 70.152,25.4544 71.6784,26.894399999999997 72.5712C27.211199999999998 72.7728,27.3264 72.9456,27.3264 73.1472C27.3264 73.176,27.3264 73.2624,27.3264 73.2912C27.2688 73.6368,27.0672 73.7808,26.7792 73.7808C26.664 73.7808,26.52 73.752,26.3472 73.6656C23.6976 72.5136,21.912 69.7776,21.912 66.7824L21.912 66.7824C21.912 63.3264,24.072 60.3312,27.384 59.1504L27.5568 59.0928L27.2688 57.6528L26.4624 53.7936M30.7824 63.4128C30.552 63.384,30.3216 63.384,30.1488 63.384C30.0912 63.384,30.0048 63.384,29.9472 63.384L29.8032 63.384L29.9184 63.9024L30.5232 66.7248L30.897599999999997 68.568L31.3008 70.3824L32.1072 74.3856L32.424 75.912C32.5392 76.3152,32.5968 76.6608,32.6256 76.6608C32.6256 76.6608,32.6256 76.6608,32.6256 76.6608C32.654399999999995 76.6608,33.144 76.3728,33.4608 76.1424C34.9296 75.1056,36.024 73.4928,36.4272 71.8224C36.571200000000005 71.2752,36.6288 70.6992,36.6288 70.152C36.6288 66.8112,34.152 63.7872,30.7824 63.4128" ></path>
<path stroke-width="0.3" fill="black" stroke="none" font-family="Arial" font-size="10pt" font-weight="normal" font-style="normal" x="353" y="39" width="0.5" height="41.5" d="M49.46065 39M55.39777 24.3624C55.47985 24.30768,55.50721 24.30768,55.61665 24.30768C55.89025 24.30768,56.08177 24.41712,56.163850000000004 24.66336L56.19121 24.745440000000002L56.21857 28.3296L56.21857 31.94112L56.92993 31.7496C57.34033 31.64016,57.64129 31.6128,57.83281 31.6128C58.07905 31.6128,58.18849 31.69488,58.27057 31.91376C58.29793 31.99584,58.29793 32.62512,58.29793 33.30912C58.29793 33.96576,58.29793 34.64976,58.27057 34.67712C58.16113 34.950720000000004,58.07905 34.97808,57.34033 35.1696C56.410090000000004 35.41584,56.21857 35.4432,56.21857 35.4432C56.21857 35.4432,56.21857 36.154560000000004,56.21857 37.2216C56.21857 37.60464,56.21857 38.01504,56.21857 38.4528L56.21857 41.40768L56.92993 41.21616C57.36769 41.10672,57.64129 41.07936,57.83281 41.07936C57.96961 41.07936,58.07905 41.10672,58.16113 41.21616C58.29793 41.38032,58.29793 41.35296,58.29793 42.36528L58.29793 42.77568L58.29793 43.21344C58.29793 44.22576,58.29793 44.1984,58.16113 44.3352C58.05169 44.44464,58.07905 44.44464,56.82049 44.745599999999996C56.546890000000005 44.82768,56.300650000000005 44.90976,56.27329 44.90976L56.21857 44.90976L56.21857 48.54864L56.19121 52.21488L56.163850000000004 52.32432C56.08177 52.5432,55.86289 52.65264,55.61665 52.65264C55.45249 52.65264,55.20625 52.5432,55.09681 52.32432L55.06945 52.21488L55.06945 48.7128L55.06945 45.21072L55.04209 45.21072L54.41281 45.37488L53.23633 45.67584C52.93537 45.75792,52.661770000000004 45.81264,52.661770000000004 45.81264C52.60705 45.81264,52.60705 46.00416,52.60705 49.5336L52.60705 53.30928L52.57969 53.39136C52.47025 53.61024,52.25137 53.71968,52.05985 53.71968C51.84097 53.71968,51.59473 53.61024,51.48529 53.39136L51.457930000000005 53.30928L51.457930000000005 49.69776C51.457930000000005 46.35984,51.457930000000005 46.1136,51.43057 46.1136C51.43057 46.1136,51.43057 46.1136,51.43057 46.1136C51.12961 46.195679999999996,50.08993 46.46928,49.98049 46.46928C49.73425 46.46928,49.57009 46.30512,49.46065 46.1136C49.46065 46.00416,49.46065 46.00416,49.46065 44.71824L49.46065 43.43232L49.48801 43.32288C49.59745 43.049279999999996,49.59745 43.049279999999996,51.12961 42.66624L51.457930000000005 42.58416L51.457930000000005 39.60192C51.457930000000005 36.83856,51.457930000000005 36.64704,51.43057 36.64704C51.43057 36.64704,51.43057 36.64704,51.43057 36.64704C51.12961 36.72912,50.08993 36.97536,49.98049 36.97536C49.73425 36.97536,49.57009 36.83856,49.46065 36.64704C49.46065 36.5376,49.46065 36.5376,49.46065 35.25168L49.46065 33.96576L49.48801 33.85632C49.59745 33.58272,49.59745 33.58272,51.12961 33.19968L51.457930000000005 33.1176L51.457930000000005 29.478720000000003L51.457930000000005 25.839840000000002L51.48529 25.730400000000003C51.59473 25.53888,51.84097 25.37472,52.05985 25.37472C52.14193 25.37472,52.19665 25.42944,52.27873 25.4568C52.38817 25.484160000000003,52.49761 25.62096,52.57969 25.730400000000003L52.60705 25.839840000000002L52.60705 29.341920000000002L52.60705 32.81664L52.77121 32.81664C52.82593 32.78928,53.31841 32.67984,53.81089 32.5704L54.87793 32.24208L55.06945 32.21472L55.06945 28.49376L55.06945 24.745440000000002L55.09681 24.66336C55.17889 24.553919999999998,55.26097 24.41712,55.39777 24.3624M55.06945 38.75376C55.06945 37.0848,55.06945 35.74416,55.06945 35.74416L55.06945 35.74416C55.04209 35.74416,54.76849 35.82624,54.44017 35.90832L53.23633 36.20928C52.93537 36.29136,52.661770000000004 36.34608,52.661770000000004 36.34608C52.60705 36.34608,52.60705 36.51024,52.60705 39.32832L52.60705 42.33792L52.77121 42.2832C52.82593 42.25584,53.31841 42.1464,53.81089 42.03696L54.87793 41.76336L55.06945 41.68128L55.06945 38.75376" ></path>
<path stroke-width="0.3" fill="black" stroke="none" font-family="Arial" font-size="10pt" font-weight="normal" font-style="normal" x="353" y="39" width="0.5" height="41.5" d="M59.46065 54M65.39777000000001 39.3624C65.47985 39.307680000000005,65.50721 39.307680000000005,65.61665 39.307680000000005C65.89025 39.307680000000005,66.08177 39.41712,66.16385 39.66336L66.19121 39.74544L66.21857 43.3296L66.21857 46.94112L66.92993 46.7496C67.34033 46.64016,67.64129 46.6128,67.83281 46.6128C68.07905 46.6128,68.18849 46.69488,68.27057 46.913759999999996C68.29793000000001 46.99584,68.29793000000001 47.62512,68.29793000000001 48.30912C68.29793000000001 48.96576,68.29793000000001 49.64976,68.27057 49.67712C68.16113 49.950720000000004,68.07905 49.97808,67.34033 50.1696C66.41009 50.41584,66.21857 50.4432,66.21857 50.4432C66.21857 50.4432,66.21857 51.154560000000004,66.21857 52.2216C66.21857 52.60464,66.21857 53.01504,66.21857 53.4528L66.21857 56.40768L66.92993 56.21616C67.36769 56.10672,67.64129 56.07936,67.83281 56.07936C67.96961 56.07936,68.07905 56.10672,68.16113 56.21616C68.29793000000001 56.38032,68.29793000000001 56.35296,68.29793000000001 57.36528L68.29793000000001 57.77568L68.29793000000001 58.21344C68.29793000000001 59.22576,68.29793000000001 59.1984,68.16113 59.3352C68.05169000000001 59.44464,68.07905 59.44464,66.82049 59.745599999999996C66.54689 59.82768,66.30065 59.90976,66.27329 59.90976L66.21857 59.90976L66.21857 63.54864L66.19121 67.21488L66.16385 67.32432C66.08177 67.5432,65.86289000000001 67.65264,65.61665 67.65264C65.45249 67.65264,65.20625 67.5432,65.09681 67.32432L65.06945 67.21488L65.06945 63.7128L65.06945 60.21072L65.04209 60.21072L64.41281000000001 60.37488L63.23633 60.67584C62.93537 60.75792,62.661770000000004 60.81264,62.661770000000004 60.81264C62.60705 60.81264,62.60705 61.00416,62.60705 64.5336L62.60705 68.30928L62.57969 68.39135999999999C62.47025 68.61024,62.25137 68.71968,62.05985 68.71968C61.84097 68.71968,61.59473 68.61024,61.48529 68.39135999999999L61.457930000000005 68.30928L61.457930000000005 64.69776C61.457930000000005 61.35984,61.457930000000005 61.1136,61.43057 61.1136C61.43057 61.1136,61.43057 61.1136,61.43057 61.1136C61.12961 61.195679999999996,60.08993 61.46928,59.98049 61.46928C59.73425 61.46928,59.57009 61.30512,59.46065 61.1136C59.46065 61.00416,59.46065 61.00416,59.46065 59.71824L59.46065 58.43232L59.48801 58.32288C59.59745 58.049279999999996,59.59745 58.049279999999996,61.12961 57.66624L61.457930000000005 57.58416L61.457930000000005 54.60192C61.457930000000005 51.83856,61.457930000000005 51.64704,61.43057 51.64704C61.43057 51.64704,61.43057 51.64704,61.43057 51.64704C61.12961 51.72912,60.08993 51.97536,59.98049 51.97536C59.73425 51.97536,59.57009 51.83856,59.46065 51.64704C59.46065 51.5376,59.46065 51.5376,59.46065 50.25168L59.46065 48.96576L59.48801 48.85632C59.59745 48.58272,59.59745 48.58272,61.12961 48.19968L61.457930000000005 48.1176L61.457930000000005 44.47872L61.457930000000005 40.83984L61.48529 40.7304C61.59473 40.53888,61.84097 40.374719999999996,62.05985 40.374719999999996C62.14193 40.374719999999996,62.19665 40.42944,62.27873 40.4568C62.38817 40.48416,62.49761 40.62096,62.57969 40.7304L62.60705 40.83984L62.60705 44.34192L62.60705 47.81664L62.77121 47.81664C62.82593 47.78928,63.31841 47.67984,63.81089 47.5704L64.87793 47.24208L65.06945 47.21472L65.06945 43.49376L65.06945 39.74544L65.09681 39.66336C65.17889 39.55392,65.26097 39.41712,65.39777000000001 39.3624M65.06945 53.75376C65.06945 52.0848,65.06945 50.74416,65.06945 50.74416L65.06945 50.74416C65.04209 50.74416,64.76849 50.82624,64.44017 50.90832L63.23633 51.20928C62.93537 51.29136,62.661770000000004 51.34608,62.661770000000004 51.34608C62.60705 51.34608,62.60705 51.51024,62.60705 54.32832L62.60705 57.33792L62.77121 57.2832C62.82593 57.25584,63.31841 57.1464,63.81089 57.03696L64.87793 56.76336L65.06945 56.68128L65.06945 53.75376" ></path>
<path stroke-width="0.3" fill="black" stroke="none" font-family="Arial" font-size="10pt" font-weight="normal" font-style="normal" x="353" y="39" width="0.5" height="41.5" d="M69.46065 34M75.39777000000001 19.3624C75.47985 19.30768,75.50721 19.30768,75.61665 19.30768C75.89025 19.30768,76.08177 19.41712,76.16385 19.66336L76.19121 19.745440000000002L76.21857 23.3296L76.21857 26.94112L76.92993 26.7496C77.34033 26.64016,77.64129 26.6128,77.83281 26.6128C78.07905 26.6128,78.18849 26.69488,78.27057 26.91376C78.29793000000001 26.99584,78.29793000000001 27.62512,78.29793000000001 28.30912C78.29793000000001 28.96576,78.29793000000001 29.64976,78.27057 29.677120000000002C78.16113 29.95072,78.07905 29.97808,77.34033 30.1696C76.41009 30.41584,76.21857 30.4432,76.21857 30.4432C76.21857 30.4432,76.21857 31.15456,76.21857 32.2216C76.21857 32.60464,76.21857 33.01504,76.21857 33.4528L76.21857 36.40768L76.92993 36.21616C77.36769 36.10672,77.64129 36.07936,77.83281 36.07936C77.96961 36.07936,78.07905 36.10672,78.16113 36.21616C78.29793000000001 36.38032,78.29793000000001 36.35296,78.29793000000001 37.36528L78.29793000000001 37.77568L78.29793000000001 38.21344C78.29793000000001 39.22576,78.29793000000001 39.1984,78.16113 39.3352C78.05169000000001 39.44464,78.07905 39.44464,76.82049 39.745599999999996C76.54689 39.82768,76.30065 39.90976,76.27329 39.90976L76.21857 39.90976L76.21857 43.54864L76.19121 47.21488L76.16385 47.32432C76.08177 47.5432,75.86289000000001 47.65264,75.61665 47.65264C75.45249 47.65264,75.20625 47.5432,75.09681 47.32432L75.06945 47.21488L75.06945 43.7128L75.06945 40.21072L75.04209 40.21072L74.41281000000001 40.37488L73.23633 40.67584C72.93537 40.75792,72.66177 40.81264,72.66177 40.81264C72.60705 40.81264,72.60705 41.00416,72.60705 44.5336L72.60705 48.30928L72.57969 48.39136C72.47025000000001 48.61024,72.25137 48.71968,72.05985 48.71968C71.84097 48.71968,71.59473 48.61024,71.48529 48.39136L71.45793 48.30928L71.45793 44.69776C71.45793 41.35984,71.45793 41.1136,71.43057 41.1136C71.43057 41.1136,71.43057 41.1136,71.43057 41.1136C71.12961 41.195679999999996,70.08993 41.46928,69.98049 41.46928C69.73425 41.46928,69.57009000000001 41.30512,69.46065 41.1136C69.46065 41.00416,69.46065 41.00416,69.46065 39.71824L69.46065 38.43232L69.48801 38.32288C69.59745 38.049279999999996,69.59745 38.049279999999996,71.12961 37.66624L71.45793 37.58416L71.45793 34.60192C71.45793 31.83856,71.45793 31.64704,71.43057 31.64704C71.43057 31.64704,71.43057 31.64704,71.43057 31.64704C71.12961 31.72912,70.08993 31.975360000000002,69.98049 31.975360000000002C69.73425 31.975360000000002,69.57009000000001 31.83856,69.46065 31.64704C69.46065 31.5376,69.46065 31.5376,69.46065 30.25168L69.46065 28.96576L69.48801 28.85632C69.59745 28.582720000000002,69.59745 28.582720000000002,71.12961 28.19968L71.45793 28.1176L71.45793 24.478720000000003L71.45793 20.839840000000002L71.48529 20.730400000000003C71.59473 20.53888,71.84097 20.37472,72.05985 20.37472C72.14193 20.37472,72.19665 20.42944,72.27873 20.4568C72.38817 20.484160000000003,72.49761 20.62096,72.57969 20.730400000000003L72.60705 20.839840000000002L72.60705 24.341920000000002L72.60705 27.81664L72.77121 27.81664C72.82593 27.78928,73.31841 27.67984,73.81089 27.5704L74.87793 27.24208L75.06945 27.21472L75.06945 23.49376L75.06945 19.745440000000002L75.09681 19.66336C75.17889 19.553919999999998,75.26097 19.41712,75.39777000000001 19.3624M75.06945 33.75376C75.06945 32.0848,75.06945 30.74416,75.06945 30.74416L75.06945 30.74416C75.04209 30.74416,74.76849 30.82624,74.44017 30.90832L73.23633 31.20928C72.93537 31.29136,72.66177 31.34608,72.66177 31.34608C72.60705 31.34608,72.60705 31.51024,72.60705 34.32832L72.60705 37.33792L72.77121 37.2832C72.82593 37.25584,73.31841 37.1464,73.81089 37.03696L74.87793 36.76336L75.06945 36.68128L75.06945 33.75376" ></path>
<g class="vf-stavenote" ><g class="vf-note" pointer-events="bounding-box" ><g class="vf-stem" pointer-events="bounding-box" ><path stroke-width="1.5" fill="none" stroke="black" font-family="Arial" font-size="10pt" font-weight="normal" font-style="normal" x="353" y="39" width="0.5" height="41.5" d="M101.46065 63L101.46065 31" ></path>
</g>
<g class="vf-notehead" pointer-events="bounding-box" ><path stroke-width="0.3" fill="black" stroke="none" font-family="Arial" font-size="10pt" font-weight="normal" font-style="normal" x="353" y="39" width="0.5" height="41.5" d="M91.46065 65M98.06305 60.3128C98.16385 60.3128,98.31505 60.3128,98.34025 60.3128C98.34025 60.3128,98.36545 60.3128,98.36545 60.3128C98.36545 60.3128,98.51665 60.3128,98.64265 60.3128C100.91065 60.4388,102.24625 61.9256,102.24625 63.7904C102.24625 64.6976,101.94385 65.7308,101.18785 66.7136C99.75145 68.654,97.40785 69.7124,95.36665 69.7124C93.77905 69.7124,92.41825 69.0824,91.76305 67.7972C91.56145000000001 67.2932,91.46065 66.8144,91.46065 66.2852C91.46065 63.5384,94.53505 60.4892,98.06305 60.3128" ></path>
</g>
</g>
<g class="vf-modifiers" ></g>
</g>
<g class="vf-stavenote" ><g class="vf-note" pointer-events="bounding-box" ><g class="vf-stem" pointer-events="bounding-box" ><path stroke-width="1.5" fill="none" stroke="black" font-family="Arial" font-size="10pt" font-weight="normal" font-style="normal" x="353" y="39" width="0.5" height="41.5" d="M125.15306875 62L125.15306875 94" ></path>
</g>
<g class="vf-notehead" pointer-events="bounding-box" ><path stroke-width="0.3" fill="black" stroke="none" font-family="Arial" font-size="10pt" font-weight="normal" font-style="normal" x="353" y="39" width="0.5" height="41.5" d="M124.40306875 60M131.00546875 55.3128C131.10626875 55.3128,131.25746875000002 55.3128,131.28266875 55.3128C131.28266875 55.3128,131.30786875 55.3128,131.30786875 55.3128C131.30786875 55.3128,131.45906875 55.3128,131.58506875 55.3128C133.85306875 55.4388,135.18866875 56.9256,135.18866875 58.7904C135.18866875 59.6976,134.88626875 60.7308,134.13026875 61.7136C132.69386875 63.653999999999996,130.35026875 64.7124,128.30906875 64.7124C126.72146875 64.7124,125.36066875 64.0824,124.70546875000001 62.797200000000004C124.50386875000001 62.2932,124.40306875 61.8144,124.40306875 61.2852C124.40306875 58.5384,127.47746875 55.4892,131.00546875 55.3128" ></path>
</g>
</g>
<g class="vf-modifiers" ></g>
</g>
<g class="vf-stavenote" ><g class="vf-note" pointer-events="bounding-box" ><g class="vf-stem" pointer-events="bounding-box" ><path stroke-width="1.5" fill="none" stroke="black" font-family="Arial" font-size="10pt" font-weight="normal" font-style="normal" x="353" y="39" width="0.5" height="41.5" d="M158.0954875 57L158.0954875 89" ></path>
</g>
<g class="vf-notehead" pointer-events="bounding-box" ><path stroke-width="0.3" fill="black" stroke="none" font-family="Arial" font-size="10pt" font-weight="normal" font-style="normal" x="353" y="39" width="0.5" height="41.5" d="M157.3454875 55M163.94788749999998 50.3128C164.0486875 50.3128,164.1998875 50.3128,164.2250875 50.3128C164.2250875 50.3128,164.25028749999998 50.3128,164.25028749999998 50.3128C164.25028749999998 50.3128,164.4014875 50.3128,164.52748749999998 50.3128C166.79548749999998 50.4388,168.13108749999998 51.9256,168.13108749999998 53.7904C168.13108749999998 54.6976,167.8286875 55.7308,167.0726875 56.7136C165.63628749999998 58.653999999999996,163.2926875 59.7124,161.2514875 59.7124C159.6638875 59.7124,158.3030875 59.0824,157.6478875 57.797200000000004C157.44628749999998 57.2932,157.3454875 56.8144,157.3454875 56.2852C157.3454875 53.5384,160.4198875 50.4892,163.94788749999998 50.3128" ></path>
</g>
</g>
<g class="vf-modifiers" ></g>
</g>
<g class="vf-stavenote" ><g class="vf-note" pointer-events="bounding-box" ><g class="vf-stem" pointer-events="bounding-box" ><path stroke-width="1.5" fill="none" stroke="black" font-family="Arial" font-size="10pt" font-weight="normal" font-style="normal" x="353" y="39" width="0.5" height="41.5" d="M191.03790625 52L191.03790625 84" ></path>
</g>
<g class="vf-notehead" pointer-events="bounding-box" ><path stroke-width="0.3" fill="black" stroke="none" font-family="Arial" font-size="10pt" font-weight="normal" font-style="normal" x="353" y="39" width="0.5" height="41.5" d="M190.28790625 50M196.89030624999998 45.3128C196.99110625 45.3128,197.14230625 45.3128,197.16750625 45.3128C197.16750625 45.3128,197.19270625 45.3128,197.19270625 45.3128C197.19270625 45.3128,197.34390625 45.3128,197.46990624999998 45.3128C199.73790624999998 45.4388,201.07350624999998 46.9256,201.07350624999998 48.7904C201.07350624999998 49.6976,200.77110625 50.7308,200.01510625 51.7136C198.57870624999998 53.653999999999996,196.23510625 54.7124,194.19390625 54.7124C192.60630625 54.7124,191.24550625 54.0824,190.59030625 52.797200000000004C190.38870624999998 52.2932,190.28790625 51.8144,190.28790625 51.2852C190.28790625 48.5384,193.36230625 45.4892,196.89030624999998 45.3128" ></path>
</g>
</g>
<g class="vf-modifiers" ></g>
</g>
<g class="vf-stavenote" ><g class="vf-note" pointer-events="bounding-box" ><g class="vf-stem" pointer-events="bounding-box" ><path stroke-width="1.5" fill="none" stroke="black" font-family="Arial" font-size="10pt" font-weight="normal" font-style="normal" x="353" y="39" width="0.5" height="41.5" d="M223.980325 47L223.980325 79" ></path>
</g>
<g class="vf-notehead" pointer-events="bounding-box" ><path stroke-width="0.3" fill="black" stroke="none" font-family="Arial" font-size="10pt" font-weight="normal" font-style="normal" x="353" y="39" width="0.5" height="41.5" d="M223.230325 45M229.83272499999998 40.3128C229.933525 40.3128,230.084725 40.3128,230.109925 40.3128C230.109925 40.3128,230.135125 40.3128,230.135125 40.3128C230.135125 40.3128,230.286325 40.3128,230.41232499999998 40.3128C232.68032499999998 40.4388,234.01592499999998 41.9256,234.01592499999998 43.7904C234.01592499999998 44.6976,233.713525 45.7308,232.957525 46.7136C231.52112499999998 48.653999999999996,229.177525 49.7124,227.136325 49.7124C225.548725 49.7124,224.187925 49.0824,223.532725 47.797200000000004C223.331125 47.2932,223.230325 46.8144,223.230325 46.2852C223.230325 43.5384,226.304725 40.4892,229.83272499999998 40.3128" ></path>
</g>
</g>
<g class="vf-modifiers" ></g>
</g>
<g class="vf-stavenote" ><g class="vf-note" pointer-events="bounding-box" ><g class="vf-stem" pointer-events="bounding-box" ><path stroke-width="1.5" fill="none" stroke="black" font-family="Arial" font-size="10pt" font-weight="normal" font-style="normal" x="353" y="39" width="0.5" height="41.5" d="M256.92274375 42L256.92274375 74" ></path>
</g>
<g class="vf-notehead" pointer-events="bounding-box" ><path stroke-width="0.3" fill="black" stroke="none" font-family="Arial" font-size="10pt" font-weight="normal" font-style="normal" x="353" y="39" width="0.5" height="41.5" d="M256.17274375 40M262.77514375 35.3128C262.87594375 35.3128,263.02714375 35.3128,263.05234375 35.3128C263.05234375 35.3128,263.07754375 35.3128,263.07754375 35.3128C263.07754375 35.3128,263.22874375 35.3128,263.35474375 35.3128C265.62274375 35.4388,266.95834375 36.9256,266.95834375 38.7904C266.95834375 39.6976,266.65594375 40.7308,265.89994375 41.7136C264.46354375 43.653999999999996,262.11994375 44.7124,260.07874375 44.7124C258.49114375 44.7124,257.13034375 44.0824,256.47514375 42.797200000000004C256.27354375 42.2932,256.17274375 41.8144,256.17274375 41.2852C256.17274375 38.5384,259.24714375 35.4892,262.77514375 35.3128" ></path>
</g>
</g>
<g class="vf-modifiers" ></g>
</g>
<g class="vf-stavenote" ><g class="vf-note" pointer-events="bounding-box" ><g class="vf-stem" pointer-events="bounding-box" ><path stroke-width="1.5" fill="none" stroke="black" font-family="Arial" font-size="10pt" font-weight="normal" font-style="normal" x="353" y="39" width="0.5" height="41.5" d="M289.8651625 37L289.8651625 69" ></path>
</g>
<g class="vf-notehead" pointer-events="bounding-box" ><path stroke-width="0.3" fill="black" stroke="none" font-family="Arial" font-size="10pt" font-weight="normal" font-style="normal" x="353" y="39" width="0.5" height="41.5" d="M289.1151625 35M295.7175625 30.3128C295.8183625 30.3128,295.9695625 30.3128,295.9947625 30.3128C295.9947625 30.3128,296.0199625 30.3128,296.0199625 30.3128C296.0199625 30.3128,296.1711625 30.3128,296.2971625 30.3128C298.5651625 30.4388,299.9007625 31.9256,299.9007625 33.7904C299.9007625 34.6976,299.5983625 35.7308,298.8423625 36.7136C297.4059625 38.653999999999996,295.0623625 39.7124,293.0211625 39.7124C291.4335625 39.7124,290.0727625 39.0824,289.4175625 37.797200000000004C289.2159625 37.2932,289.1151625 36.8144,289.1151625 36.2852C289.1151625 33.5384,292.1895625 30.4892,295.7175625 30.3128" ></path>
</g>
</g>
<g class="vf-modifiers" ></g>
</g>
<rect stroke-width="0.3" fill="black" stroke="black" font-family="Arial" font-size="10pt" font-weight="normal" font-style="normal" x="319.05758125" y="30" width="15.5" height="0.5" ></rect>
<g class="vf-stavenote" ><g class="vf-note" pointer-events="bounding-box" ><g class="vf-stem" pointer-events="bounding-box" ><path stroke-width="1.5" fill="none" stroke="black" font-family="Arial" font-size="10pt" font-weight="normal" font-style="normal" x="319.05758125" y="30" width="15.5" height="0.5" d="M322.80758125 32L322.80758125 64" ></path>
</g>
<g class="vf-notehead" pointer-events="bounding-box" ><rect stroke-width="0.3" fill="black" stroke="black" font-family="Arial" font-size="10pt" font-weight="normal" font-style="normal" x="319.05758125" y="30" width="15.5" height="0.5" ></rect>
<path stroke-width="0.3" fill="black" stroke="none" font-family="Arial" font-size="10pt" font-weight="normal" font-style="normal" x="319.05758125" y="30" width="15.5" height="0.5" d="M322.05758125 30M328.65998125 25.3128C328.76078125 25.3128,328.91198125 25.3128,328.93718125 25.3128C328.93718125 25.3128,328.96238125 25.3128,328.96238125 25.3128C328.96238125 25.3128,329.11358125 25.3128,329.23958125 25.3128C331.50758125 25.4388,332.84318125 26.9256,332.84318125 28.790399999999998C332.84318125 29.6976,332.54078125 30.7308,331.78478125 31.7136C330.34838125 33.653999999999996,328.00478125 34.7124,325.96358125 34.7124C324.37598125 34.7124,323.01518125 34.0824,322.35998125 32.797200000000004C322.15838125 32.2932,322.05758125 31.8144,322.05758125 31.2852C322.05758125 28.5384,325.13198125 25.4892,328.65998125 25.3128" ></path>
</g>
</g>
<g class="vf-modifiers" ></g>
</g>
</svg>