<?xml version="1.0" encoding="utf-8"?>
<!DOCTYPE svg PUBLIC "-//W3C//DTD SVG 1.1//EN" "http://www.w3.org/Graphics/SVG/1.1/DTD/svg11.dtd">
<svg version="1.1" id="Layer_1" xmlns="http://www.w3.org/2000/svg"
     xmlns:xlink="http://www.w3.org/1999/xlink" x="0px" y="0px"
     width="170px" height="110.76923076923077px" viewBox="0 0 170 110.76923076923077"
     enable-background="new 0 0 170 110.76923076923077" xml:space="preserve"><rect stroke-width="0.3" fill="#999999" stroke="#999999" font-family="Arial" font-size="10pt" font-weight="normal" font-style="normal" x="10" y="39" width="149.5" height="1.5" ></rect>
<rect stroke-width="0.3" fill="#999999" stroke="#999999" font-family="Arial" font-size="10pt" font-weight="normal" font-style="normal" x="10" y="49" width="149.5" height="1.5" ></rect>
<rect stroke-width="0.3" fill="#999999" stroke="#999999" font-family="Arial" font-size="10pt" font-weight="normal" font-style="normal" x="10" y="59" width="149.5" height="1.5" ></rect>
<rect stroke-width="0.3" fill="#999999" stroke="#999999" font-family="Arial" font-size="10pt" font-weight="normal" font-style="normal" x="10" y="69" width="149.5" height="1.5" ></rect>
<rect stroke-width="0.3" fill="#999999" stroke="#999999" font-family="Arial" font-size="10pt" font-weight="normal" font-style="normal" x="10" y="79" width="149.5" height="1.5" ></rect>
<rect stroke-width="0.3" fill="black" stroke="black" font-family="Arial" font-size="10pt" font-weight="normal" font-style="normal" x="10" y="39" width="0.5" height="41.5" ></rect>
<rect stroke-width="0.3" fill="black" stroke="black" font-family="Arial" font-size="10pt" font-weight="normal" font-style="normal" x="160" y="39" width="0.5" height="41.5" ></rect>
<path stroke-width="0.3" fill="black" stroke="none" font-family="Arial" font-size="10pt" font-weight="normal" font-style="normal" x="160" y="39" width="0.5" height="41.5" d="M15 49M23.8416 38.9488C24.072 38.8912,24.3024 38.8912,24.5616 38.8912C25.5696 38.8912,26.7504 39.0064,27.7584 39.208C32.4816 40.187200000000004,35.736000000000004 43.384,36.3408 47.6464C36.398399999999995 48.1072,36.4272 48.5392,36.4272 49C36.4272 51.592,35.5344 54.9328,34.007999999999996 57.7264C30.379199999999997 64.2928,23.755200000000002 69.01599999999999,15.8064 70.744C15.6624 70.744,15.5472 70.7728,15.4032 70.7728C15.1152 70.7728,14.9712 70.6,14.9712 70.3408C14.9712 70.05279999999999,15.0288 69.9664,15.604800000000001 69.736C24.7056 66.30879999999999,30.7824 58.9072,31.3296 50.6128C31.3584 50.1808,31.3584 49.6912,31.3584 49.3168C31.3584 45.2848,30.119999999999997 42.2896,27.729599999999998 40.792C26.6928 40.129599999999996,25.5696 39.8128,24.36 39.8128C21.6816 39.8128,18.9456 41.3392,17.6784 43.9024C17.6208 44.104,17.4192 44.536,17.4192 44.5648C17.4192 44.5648,17.4192 44.5648,17.4192 44.5648C17.4192 44.5648,17.448 44.536,17.534399999999998 44.5072C18.168 44.104,18.8592 43.9024,19.5792 43.9024C20.5872 43.9024,21.6528 44.3344,22.401600000000002 45.1408C23.0928 45.8896,23.4672 46.8976,23.4672 47.8192C23.4672 49.6912,22.0848 51.592,19.9248 51.7936C19.7808 51.7936,19.6368 51.8224,19.4928 51.8224C17.1024 51.8224,15.1728 49.6336,15.1728 46.8688C15.1728 46.8112,15.1728 46.7248,15.1728 46.696C15.288 42.577600000000004,19.0608 39.208,23.8416 38.9488M39.1632 42.808C39.2208 42.7792,39.2496 42.7792,39.336 42.7792C39.5376 42.7792,39.768 42.808,39.825599999999994 42.8656C40.5456 43.0672,40.8912 43.7008,40.8912 44.3056C40.8912 44.824,40.632 45.3424,40.1136 45.6304C39.912 45.7744,39.6528 45.8032,39.3936 45.8032C38.9904 45.8032,38.5584 45.6304,38.270399999999995 45.256C38.04 44.968,37.9248 44.6512,37.9248 44.3344C37.9248 43.6144,38.3856 42.8944,39.1632 42.808M39.1632 52.2256C39.2208 52.2256,39.2496 52.2256,39.336 52.2256C39.5376 52.2256,39.768 52.2544,39.825599999999994 52.312C40.5456 52.5136,40.8912 53.1472,40.8912 53.752C40.8912 54.2704,40.632 54.7888,40.1136 55.048C39.912 55.192,39.6528 55.2496,39.3936 55.2496C38.9904 55.2496,38.5584 55.048,38.270399999999995 54.7024C38.04 54.4144,37.9248 54.0976,37.9248 53.752C37.9248 53.032,38.3856 52.3408,39.1632 52.2256" ></path>
<g class="vf-stavenote" ><g class="vf-note" pointer-events="bounding-box" ><g class="vf-notehead" pointer-events="bounding-box" ><path stroke-width="0.3" fill="black" stroke="none" font-family="Arial" font-size="10pt" font-weight="normal" font-style="normal" x="160" y="39" width="0.5" height="41.5" d="M52.950599999999994 65M59.855399999999996 60.3632C60.1326 60.3128,60.4098 60.3128,60.687 60.3128C64.6686 60.3128,67.99499999999999 62.0768,68.4738 64.4456C68.499 64.6724,68.54939999999999 64.874,68.54939999999999 65.0252C68.54939999999999 67.6208,65.12219999999999 69.7124,60.712199999999996 69.7124C56.30219999999999 69.7124,52.950599999999994 67.5704,52.950599999999994 65.0252C52.950599999999994 64.7228,52.97579999999999 64.4204,53.07659999999999 64.0928C53.6814 62.102,56.50379999999999 60.5648,59.855399999999996 60.3632M60.233399999999996 60.9428C60.1074 60.9176,59.931 60.9176,59.80499999999999 60.9176C58.2174 60.9176,57.25979999999999 62.2784,57.25979999999999 63.9668C57.25979999999999 64.874,57.53699999999999 65.8568,58.11659999999999 66.8396C59.07419999999999 68.3516,60.46019999999999 69.1076,61.6446 69.1076C62.65259999999999 69.1076,63.5346 68.5784,63.937799999999996 67.4696C64.1142 67.016,64.18979999999999 66.5624,64.18979999999999 66.0836C64.18979999999999 63.8156,62.45099999999999 61.2956,60.233399999999996 60.9428" ></path>
</g>
<g class="vf-notehead" pointer-events="bounding-box" ><path stroke-width="0.3" fill="black" stroke="none" font-family="Arial" font-size="10pt" font-weight="normal" font-style="normal" x="160" y="39" width="0.5" height="41.5" d="M52.950599999999994 55M59.855399999999996 50.3632C60.1326 50.3128,60.4098 50.3128,60.687 50.3128C64.6686 50.3128,67.99499999999999 52.0768,68.4738 54.4456C68.499 54.6724,68.54939999999999 54.874,68.54939999999999 55.0252C68.54939999999999 57.6208,65.12219999999999 59.7124,60.712199999999996 59.7124C56.30219999999999 59.7124,52.950599999999994 57.5704,52.950599999999994 55.0252C52.950599999999994 54.7228,52.97579999999999 54.4204,53.07659999999999 54.0928C53.6814 52.102,56.50379999999999 50.5648,59.855399999999996 50.3632M60.233399999999996 50.9428C60.1074 50.9176,59.931 50.9176,59.80499999999999 50.9176C58.2174 50.9176,57.25979999999999 52.2784,57.25979999999999 53.9668C57.25979999999999 54.874,57.53699999999999 55.8568,58.11659999999999 56.8396C59.07419999999999 58.3516,60.46019999999999 59.1076,61.6446 59.1076C62.65259999999999 59.1076,63.5346 58.5784,63.937799999999996 57.4696C64.1142 57.016,64.18979999999999 56.5624,64.18979999999999 56.0836C64.18979999999999 53.8156,62.45099999999999 51.2956,60.233399999999996 50.9428" ></path>
</g>
<g class="vf-notehead" pointer-events="bounding-box" ><path stroke-width="0.3" fill="black" stroke="none" font-family="Arial" font-size="10pt" font-weight="normal" font-style="normal" x="160" y="39" width="0.5" height="41.5" d="M52.950599999999994 45M59.855399999999996 40.3632C60.1326 40.3128,60.4098 40.3128,60.687 40.3128C64.6686 40.3128,67.99499999999999 42.0768,68.4738 44.4456C68.499 44.6724,68.54939999999999 44.874,68.54939999999999 45.0252C68.54939999999999 47.6208,65.12219999999999 49.7124,60.712199999999996 49.7124C56.30219999999999 49.7124,52.950599999999994 47.5704,52.950599999999994 45.0252C52.950599999999994 44.7228,52.97579999999999 44.4204,53.07659999999999 44.0928C53.6814 42.102,56.50379999999999 40.5648,59.855399999999996 40.3632M60.233399999999996 40.9428C60.1074 40.9176,59.931 40.9176,59.80499999999999 40.9176C58.2174 40.9176,57.25979999999999 42.2784,57.25979999999999 43.9668C57.25979999999999 44.874,57.53699999999999 45.8568,58.11659999999999 46.8396C59.07419999999999 48.3516,60.46019999999999 49.1076,61.6446 49.1076C62.65259999999999 49.1076,63.5346 48.5784,63.937799999999996 47.4696C64.1142 47.016,64.18979999999999 46.5624,64.18979999999999 46.0836C64.18979999999999 43.8156,62.45099999999999 41.2956,60.233399999999996 40.9428" ></path>
</g>
</g>
<g class="vf-modifiers" ></g>
</g>
</svg>