<svg version="1.1" xmlns="http://www.w3.org/2000/svg" xmlns:xlink="http://www.w3.org/1999/xlink" x="0px" y="0px" width="100" height="100" xml:space="preserve" viewBox="0 0 100 100">
  <rect x="0" y="0" width="100" height="100" style="fill: white"/>
  <circle transform="scale(0.877),translate(7,7)" cx="50" cy="8.000000000000002" r="9.5" stroke="#00c" stroke-width="3" fill="#00C"/>
  <circle transform="scale(0.877),translate(7,7)" cx="71" cy="13.626933041053574" r="9.5" stroke="#a4f" stroke-width="3" fill="white"/>
  <circle transform="scale(0.877),translate(7,7)" cx="86.37306695894642" cy="28.999999999999993" r="9.5" stroke="#f0f" stroke-width="3" fill="white"/>
  <circle transform="scale(0.877),translate(7,7)" cx="92" cy="50" r="9.5" stroke="#a16" stroke-width="3" fill="white"/>
  <circle transform="scale(0.877),translate(7,7)" cx="86.37306695894642" cy="71" r="9.5" stroke="#e02" stroke-width="3" fill="#e02"/>
  <circle transform="scale(0.877),translate(7,7)" cx="71" cy="86.37306695894642" r="9.5" stroke="#f91" stroke-width="3" fill="white"/>
  <circle transform="scale(0.877),translate(7,7)" cx="50" cy="92" r="9.5" stroke="#c81" stroke-width="3" fill="white"/>
  <circle transform="scale(0.877),translate(7,7)" cx="29.000000000000014" cy="86.37306695894644" r="9.5" stroke="#161" stroke-width="3" fill="#1e0"/>
  <circle transform="scale(0.877),translate(7,7)" cx="13.626933041053585" cy="71.00000000000001" r="9.5" stroke="#094" stroke-width="3" fill="white"/>
  <circle transform="scale(0.877),translate(7,7)" cx="8.000000000000002" cy="50.000000000000014" r="9.5" stroke="#0bb" stroke-width="3" fill="white"/>
  <circle transform="scale(0.877),translate(7,7)" cx="13.62693304105358" cy="28.999999999999993" r="9.5" stroke="#16b" stroke-width="3" fill="white"/>
  <circle transform="scale(0.877),translate(7,7)" cx="28.999999999999982" cy="13.62693304105359" r="9.5" stroke="#28f" stroke-width="3" fill="white"/>

</svg>