<svg xmlns="http://www.w3.org/2000/svg" width="500" height="650" viewBox="-100 -40 1100 1320">
<circle class="ring" cx="0" cy="0" r="290.69" style="fill: none; stroke: #888; stroke-width: 2" />
<circle class="ring" cx="0" cy="0" r="581.38" style="fill: none; stroke: #888; stroke-width: 2" />
<circle class="ring" cx="0" cy="0" r="872.07" style="fill: none; stroke: #888; stroke-width: 2" />
<circle class="ring" cx="0" cy="0" r="1162.76" style="fill: none; stroke: #888; stroke-width: 2" />
<circle class="ring" cx="0" cy="0" r="1453.44" style="fill: none; stroke: #888; stroke-width: 2" />
<circle class="dot" data-cardinality="3" cx="500.00" cy="0.00" r="9" fill="#999" />
<circle class="dot" data-cardinality="3" cx="440.90" cy="151.36" r="9" fill="#099" />
<circle class="dot" data-cardinality="3" cx="367.87" cy="286.32" r="9" fill="#099" />
<circle class="dot" data-cardinality="4" cx="790.00" cy="0.00" r="9" fill="#999" />
<circle class="dot" data-cardinality="3" cx="238.31" cy="364.77" r="9" fill="#099" />
<circle class="dot" data-cardinality="3" cx="105.56" cy="416.84" r="9" fill="#099" />
<circle class="dot" data-cardinality="4" cx="748.68" cy="110.18" r="9" fill="#999" />
<circle class="dot" data-cardinality="3" cx="-35.98" cy="434.23" r="9" fill="#099" />
<circle class="dot" data-cardinality="4" cx="724.66" cy="218.02" r="9" fill="#099" />
<circle class="dot" data-cardinality="4" cx="685.19" cy="321.20" r="9" fill="#999" />
<circle class="dot" data-cardinality="5" cx="1080.00" cy="0.00" r="9" fill="#999" />
<circle class="dot" data-cardinality="3" cx="-165.19" cy="376.61" r="9" fill="#099" />
<circle class="dot" data-cardinality="3" cx="-268.83" cy="292.03" r="9" fill="#099" />
<circle class="dot" data-cardinality="4" cx="607.56" cy="401.96" r="9" fill="#999" />
<circle class="dot" data-cardinality="3" cx="-349.09" cy="188.92" r="9" fill="#099" />
<circle class="dot" data-cardinality="4" cx="537.85" cy="481.92" r="9" fill="#099" />
<circle class="dot" data-cardinality="4" cx="461.95" cy="555.09" r="9" fill="#099" />
<circle class="dot" data-cardinality="5" cx="1040.20" cy="99.33" r="9" fill="#999" />
<circle class="dot" data-cardinality="3" cx="-405.63" cy="67.69" r="9" fill="#099" />
<circle class="dot" data-cardinality="4" cx="379.50" cy="621.84" r="9" fill="#099" />
<circle class="dot" data-cardinality="4" cx="282.44" cy="664.65" r="9" fill="#099" />
<circle class="dot" data-cardinality="5" cx="1026.05" cy="197.75" r="9" fill="#999" />
<circle class="dot" data-cardinality="4" cx="184.26" cy="704.80" r="9" fill="#999" />
<circle class="dot" data-cardinality="5" cx="1002.60" cy="294.39" r="9" fill="#999" />
<circle class="dot" data-cardinality="5" cx="970.08" cy="388.36" r="9" fill="#999" />
<circle class="dot" data-cardinality="6" cx="1370.00" cy="0.00" r="9" fill="#999" />
<circle class="dot" data-cardinality="3" cx="-391.51" cy="-65.33" r="9" fill="#099" />
<circle class="dot" data-cardinality="3" cx="-326.13" cy="-176.50" r="9" fill="#099" />
<circle class="dot" data-cardinality="4" cx="77.50" cy="704.35" r="9" fill="#999" />
<circle class="dot" data-cardinality="3" cx="-243.82" cy="-264.86" r="9" fill="#099" />
<circle class="dot" data-cardinality="4" cx="-25.32" cy="692.95" r="9" fill="#099" />
<circle class="dot" data-cardinality="4" cx="-125.95" cy="681.88" r="9" fill="#099" />
<circle class="dot" data-cardinality="5" cx="903.92" cy="466.00" r="9" fill="#999" />
<circle class="dot" data-cardinality="3" cx="-148.96" cy="-339.60" r="9" fill="#099" />
<circle class="dot" data-cardinality="4" cx="-223.89" cy="656.27" r="9" fill="#099" />
<circle class="dot" data-cardinality="4" cx="-313.21" cy="609.20" r="9" fill="#099" />
<circle class="dot" data-cardinality="5" cx="848.91" cy="545.56" r="9" fill="#999" />
<circle class="dot" data-cardinality="4" cx="-403.47" cy="563.95" r="9" fill="#099" />
<circle class="dot" data-cardinality="5" cx="793.21" cy="623.79" r="9" fill="#099" />
<circle class="dot" data-cardinality="5" cx="730.32" cy="696.36" r="9" fill="#999" />
<circle class="dot" data-cardinality="6" cx="1327.36" cy="104.47" r="9" fill="#999" />
<circle class="dot" data-cardinality="3" cx="-32.78" cy="-395.57" r="9" fill="#099" />
<circle class="dot" data-cardinality="4" cx="-491.82" cy="510.12" r="9" fill="#099" />
<circle class="dot" data-cardinality="4" cx="-548.83" cy="423.80" r="9" fill="#099" />
<circle class="dot" data-cardinality="5" cx="665.97" cy="768.57" r="9" fill="#999" />
<circle class="dot" data-cardinality="4" cx="-604.69" cy="339.37" r="9" fill="#099" />
<circle class="dot" data-cardinality="5" cx="585.34" cy="821.99" r="9" fill="#099" />
<circle class="dot" data-cardinality="5" cx="504.55" cy="873.91" r="9" fill="#099" />
<circle class="dot" data-cardinality="6" cx="1315.07" cy="208.29" r="9" fill="#999" />
<circle class="dot" data-cardinality="4" cx="-661.84" cy="253.13" r="9" fill="#999" />
<circle class="dot" data-cardinality="5" cx="422.46" cy="925.07" r="9" fill="#999" />
<circle class="dot" data-cardinality="5" cx="330.05" cy="953.60" r="9" fill="#999" />
<circle class="dot" data-cardinality="6" cx="1294.68" cy="310.82" r="9" fill="#999" />
<circle class="dot" data-cardinality="5" cx="239.76" cy="988.30" r="9" fill="#999" />
<circle class="dot" data-cardinality="6" cx="1266.30" cy="411.45" r="9" fill="#999" />
<circle class="dot" data-cardinality="6" cx="1230.11" cy="509.53" r="9" fill="#999" />
<circle class="dot" data-cardinality="7" cx="1660.00" cy="0.00" r="9" fill="#999" />
<circle class="dot" data-cardinality="3" cx="88.37" cy="-348.98" r="9" fill="#099" />
<circle class="dot" data-cardinality="4" cx="-684.47" cy="152.47" r="9" fill="#999" />
<circle class="dot" data-cardinality="3" cx="180.72" cy="-276.61" r="9" fill="#099" />
<circle class="dot" data-cardinality="4" cx="-674.05" cy="49.33" r="9" fill="#099" />
<circle class="dot" data-cardinality="4" cx="-674.05" cy="-49.33" r="9" fill="#099" />
<circle class="dot" data-cardinality="5" cx="142.42" cy="990.58" r="9" fill="#999" />
<circle class="dot" data-cardinality="3" cx="260.74" cy="-202.94" r="9" fill="#099" />
<circle class="dot" data-cardinality="4" cx="-649.81" cy="-144.75" r="9" fill="#099" />
<circle class="dot" data-cardinality="4" cx="-611.08" cy="-233.72" r="9" fill="#099" />
<circle class="dot" data-cardinality="5" cx="46.74" cy="981.14" r="9" fill="#999" />
<circle class="dot" data-cardinality="4" cx="-580.55" cy="-325.82" r="9" fill="#099" />
<circle class="dot" data-cardinality="5" cx="-46.74" cy="981.14" r="9" fill="#099" />
<circle class="dot" data-cardinality="5" cx="-139.79" cy="972.25" r="9" fill="#999" />
<circle class="dot" data-cardinality="6" cx="1161.39" cy="591.76" r="9" fill="#999" />
<circle class="dot" data-cardinality="4" cx="-534.93" cy="-413.06" r="9" fill="#099" />
<circle class="dot" data-cardinality="4" cx="-454.10" cy="-470.99" r="9" fill="#099" />
<circle class="dot" data-cardinality="5" cx="-231.57" cy="954.56" r="9" fill="#999" />
<circle class="dot" data-cardinality="4" cx="-380.68" cy="-532.09" r="9" fill="#099" />
<circle class="dot" data-cardinality="5" cx="-317.82" cy="918.29" r="9" fill="#099" />
<circle class="dot" data-cardinality="5" cx="-403.67" cy="883.92" r="9" fill="#099" />
<circle class="dot" data-cardinality="6" cx="1102.31" cy="675.49" r="9" fill="#999" />
<circle class="dot" data-cardinality="4" cx="-309.03" cy="-601.06" r="9" fill="#099" />
<circle class="dot" data-cardinality="5" cx="-491.12" cy="850.65" r="9" fill="#099" />
<circle class="dot" data-cardinality="5" cx="-563.66" cy="791.55" r="9" fill="#099" />
<circle class="dot" data-cardinality="6" cx="1045.91" cy="759.90" r="9" fill="#999" />
<circle class="dot" data-cardinality="5" cx="-643.24" cy="742.33" r="9" fill="#999" />
<circle class="dot" data-cardinality="6" cx="983.06" cy="839.62" r="9" fill="#999" />
<circle class="dot" data-cardinality="6" cx="914.16" cy="914.16" r="9" fill="#999" />
<circle class="dot" data-cardinality="7" cx="1608.92" cy="153.63" r="9" fill="#999" />
<circle class="dot" data-cardinality="4" cx="-226.42" cy="-663.68" r="9" fill="#099" />
<circle class="dot" data-cardinality="4" cx="-122.76" cy="-664.61" r="9" fill="#099" />
<circle class="dot" data-cardinality="5" cx="-724.29" cy="690.61" r="9" fill="#999" />
<circle class="dot" data-cardinality="4" cx="-24.31" cy="-665.29" r="9" fill="#099" />
<circle class="dot" data-cardinality="5" cx="-772.10" cy="607.19" r="9" fill="#099" />
<circle class="dot" data-cardinality="5" cx="-826.32" cy="531.04" r="9" fill="#099" />
<circle class="dot" data-cardinality="6" cx="846.53" cy="991.16" r="9" fill="#999" />
<circle class="dot" data-cardinality="4" cx="73.92" cy="-671.80" r="9" fill="#099" />
<circle class="dot" data-cardinality="5" cx="-873.06" cy="450.09" r="9" fill="#099" />
<circle class="dot" data-cardinality="5" cx="-902.13" cy="361.16" r="9" fill="#099" />
<circle class="dot" data-cardinality="6" cx="759.90" cy="1045.91" r="9" fill="#999" />
<circle class="dot" data-cardinality="5" cx="-942.46" cy="276.73" r="9" fill="#099" />
<circle class="dot" data-cardinality="6" cx="675.49" cy="1102.31" r="9" fill="#099" />
<circle class="dot" data-cardinality="6" cx="586.93" cy="1151.91" r="9" fill="#999" />
<circle class="dot" data-cardinality="7" cx="1587.03" cy="305.88" r="9" fill="#999" />
<circle class="dot" data-cardinality="5" cx="-982.68" cy="189.40" r="9" fill="#999" />
<circle class="dot" data-cardinality="5" cx="-977.80" cy="93.37" r="9" fill="#999" />
<circle class="dot" data-cardinality="6" cx="498.81" cy="1204.24" r="9" fill="#999" />
<circle class="dot" data-cardinality="5" cx="-982.25" cy="-0.00" r="9" fill="#999" />
<circle class="dot" data-cardinality="6" cx="399.50" cy="1229.54" r="9" fill="#999" />
<circle class="dot" data-cardinality="6" cx="301.80" cy="1257.10" r="9" fill="#999" />
<circle class="dot" data-cardinality="7" cx="1550.77" cy="455.35" r="9" fill="#999" />
<circle class="dot" data-cardinality="5" cx="-996.24" cy="-95.13" r="9" fill="#999" />
<circle class="dot" data-cardinality="6" cx="203.91" cy="1287.41" r="9" fill="#999" />
<circle class="dot" data-cardinality="6" cx="101.43" cy="1288.83" r="9" fill="#999" />
<circle class="dot" data-cardinality="7" cx="1500.47" cy="600.70" r="9" fill="#999" />
<circle class="dot" data-cardinality="6" cx="-0.00" cy="1303.46" r="9" fill="#999" />
<circle class="dot" data-cardinality="7" cx="1436.57" cy="740.60" r="9" fill="#999" />
<circle class="dot" data-cardinality="7" cx="1359.67" cy="873.81" r="9" fill="#999" />
<circle class="dot" data-cardinality="8" cx="1950.00" cy="0.00" r="9" fill="#999" />
<circle class="dot" data-cardinality="3" cx="274.29" cy="-94.16" r="9" fill="#099" />
<circle class="dot" data-cardinality="4" cx="165.48" cy="-632.97" r="9" fill="#099" />
<circle class="dot" data-cardinality="4" cx="250.55" cy="-589.59" r="9" fill="#099" />
<circle class="dot" data-cardinality="5" cx="-954.17" cy="-183.90" r="9" fill="#999" />
<circle class="dot" data-cardinality="4" cx="340.82" cy="-558.46" r="9" fill="#099" />
<circle class="dot" data-cardinality="5" cx="-932.37" cy="-273.77" r="9" fill="#099" />
<circle class="dot" data-cardinality="5" cx="-902.13" cy="-361.16" r="9" fill="#999" />
<circle class="dot" data-cardinality="6" cx="-101.43" cy="1288.83" r="9" fill="#999" />
<circle class="dot" data-cardinality="4" cx="418.50" cy="-502.88" r="9" fill="#099" />
<circle class="dot" data-cardinality="4" cx="463.89" cy="-415.65" r="9" fill="#099" />
<circle class="dot" data-cardinality="5" cx="-853.28" cy="-439.90" r="9" fill="#999" />
<circle class="dot" data-cardinality="4" cx="519.47" cy="-343.68" r="9" fill="#099" />
<circle class="dot" data-cardinality="5" cx="-796.23" cy="-511.71" r="9" fill="#099" />
<circle class="dot" data-cardinality="5" cx="-743.99" cy="-585.08" r="9" fill="#099" />
<circle class="dot" data-cardinality="6" cx="-198.43" cy="1252.83" r="9" fill="#999" />
<circle class="dot" data-cardinality="5" cx="-694.78" cy="-662.48" r="9" fill="#099" />
<circle class="dot" data-cardinality="5" cx="-619.82" cy="-715.31" r="9" fill="#099" />
<circle class="dot" data-cardinality="6" cx="-296.11" cy="1233.40" r="9" fill="#999" />
<circle class="dot" data-cardinality="5" cx="-556.85" cy="-781.99" r="9" fill="#999" />
<circle class="dot" data-cardinality="6" cx="-391.97" cy="1206.36" r="9" fill="#999" />
<circle class="dot" data-cardinality="6" cx="-485.41" cy="1171.89" r="9" fill="#999" />
<circle class="dot" data-cardinality="7" cx="1249.27" cy="982.44" r="9" fill="#999" />
<circle class="dot" data-cardinality="4" cx="580.05" cy="-271.92" r="9" fill="#099" />
<circle class="dot" data-cardinality="5" cx="-485.87" cy="-841.55" r="9" fill="#999" />
<circle class="dot" data-cardinality="4" cx="596.46" cy="-179.45" r="9" fill="#099" />
<circle class="dot" data-cardinality="5" cx="-393.18" cy="-860.95" r="9" fill="#099" />
<circle class="dot" data-cardinality="5" cx="-309.56" cy="-894.43" r="9" fill="#099" />
<circle class="dot" data-cardinality="6" cx="-575.86" cy="1130.19" r="9" fill="#999" />
<circle class="dot" data-cardinality="5" cx="-223.14" cy="-919.81" r="9" fill="#099" />
<circle class="dot" data-cardinality="5" cx="-132.35" cy="-920.53" r="9" fill="#099" />
<circle class="dot" data-cardinality="6" cx="-655.17" cy="1069.14" r="9" fill="#999" />
<circle class="dot" data-cardinality="5" cx="-45.04" cy="-945.41" r="9" fill="#099" />
<circle class="dot" data-cardinality="6" cx="-737.03" cy="1014.44" r="9" fill="#099" />
<circle class="dot" data-cardinality="6" cx="-814.35" cy="953.48" r="9" fill="#999" />
<circle class="dot" data-cardinality="7" cx="1138.90" cy="1085.94" r="9" fill="#999" />
<circle class="dot" data-cardinality="5" cx="46.24" cy="-970.63" r="9" fill="#099" />
<circle class="dot" data-cardinality="5" cx="134.70" cy="-936.85" r="9" fill="#099" />
<circle class="dot" data-cardinality="6" cx="-896.93" cy="896.93" r="9" fill="#999" />
<circle class="dot" data-cardinality="5" cx="223.14" cy="-919.81" r="9" fill="#099" />
<circle class="dot" data-cardinality="6" cx="-953.48" cy="814.35" r="9" fill="#099" />
<circle class="dot" data-cardinality="6" cx="-1014.44" cy="737.03" r="9" fill="#099" />
<circle class="dot" data-cardinality="7" cx="1030.52" cy="1189.28" r="9" fill="#999" />
<circle class="dot" data-cardinality="6" cx="-1081.53" cy="662.76" r="9" fill="#999" />
<circle class="dot" data-cardinality="6" cx="-1117.25" cy="569.27" r="9" fill="#999" />
<circle class="dot" data-cardinality="7" cx="912.80" cy="1281.85" r="9" fill="#999" />
<circle class="dot" data-cardinality="6" cx="-1171.89" cy="485.41" r="9" fill="#999" />
<circle class="dot" data-cardinality="7" cx="786.82" cy="1362.82" r="9" fill="#999" />
<circle class="dot" data-cardinality="7" cx="653.72" cy="1431.44" r="9" fill="#999" />
<circle class="dot" data-cardinality="8" cx="1878.51" cy="276.46" r="9" fill="#999" />
<circle class="dot" data-cardinality="5" cx="317.82" cy="-918.29" r="9" fill="#099" />
<circle class="dot" data-cardinality="6" cx="-1229.54" cy="399.50" r="9" fill="#999" />
<circle class="dot" data-cardinality="5" cx="398.80" cy="-873.25" r="9" fill="#099" />
<circle class="dot" data-cardinality="5" cx="473.24" cy="-819.68" r="9" fill="#099" />
<circle class="dot" data-cardinality="6" cx="-1233.40" cy="296.11" r="9" fill="#999" />
<circle class="dot" data-cardinality="5" cx="556.85" cy="-781.99" r="9" fill="#099" />
<circle class="dot" data-cardinality="6" cx="-1252.83" cy="198.43" r="9" fill="#099" />
<circle class="dot" data-cardinality="6" cx="-1264.53" cy="99.52" r="9" fill="#999" />
<circle class="dot" data-cardinality="7" cx="519.81" cy="1501.89" r="9" fill="#999" />
<circle class="dot" data-cardinality="5" cx="619.82" cy="-715.31" r="9" fill="#099" />
<circle class="dot" data-cardinality="6" cx="-1268.44" cy="-0.00" r="9" fill="#999" />
<circle class="dot" data-cardinality="5" cx="685.00" cy="-653.15" r="9" fill="#099" />
<circle class="dot" data-cardinality="6" cx="-1250.05" cy="-98.38" r="9" fill="#099" />
<circle class="dot" data-cardinality="6" cx="-1238.48" cy="-196.16" r="9" fill="#099" />
<circle class="dot" data-cardinality="7" cx="371.00" cy="1529.29" r="9" fill="#999" />
<circle class="dot" data-cardinality="6" cx="-1233.40" cy="-296.11" r="9" fill="#099" />
<circle class="dot" data-cardinality="6" cx="-1192.54" cy="-387.48" r="9" fill="#099" />
<circle class="dot" data-cardinality="7" cx="223.95" cy="1557.63" r="9" fill="#999" />
<circle class="dot" data-cardinality="6" cx="-1171.89" cy="-485.41" r="9" fill="#999" />
<circle class="dot" data-cardinality="7" cx="74.88" cy="1571.86" r="9" fill="#999" />
<circle class="dot" data-cardinality="7" cx="-74.88" cy="1571.86" r="9" fill="#999" />
<circle class="dot" data-cardinality="8" cx="1818.24" cy="547.03" r="9" fill="#999" />
<circle class="dot" data-cardinality="6" cx="-1151.91" cy="-586.93" r="9" fill="#999" />
<circle class="dot" data-cardinality="5" cx="754.61" cy="-593.43" r="9" fill="#999" />
<circle class="dot" data-cardinality="6" cx="-1081.53" cy="-662.76" r="9" fill="#999" />
<circle class="dot" data-cardinality="6" cx="-1026.19" cy="-745.57" r="9" fill="#999" />
<circle class="dot" data-cardinality="7" cx="-226.18" cy="1573.12" r="9" fill="#999" />
<circle class="dot" data-cardinality="6" cx="-964.53" cy="-823.79" r="9" fill="#999" />
<circle class="dot" data-cardinality="6" cx="-886.65" cy="-886.65" r="9" fill="#999" />
<circle class="dot" data-cardinality="7" cx="-371.00" cy="1529.29" r="9" fill="#999" />
<circle class="dot" data-cardinality="6" cx="-823.79" cy="-964.53" r="9" fill="#999" />
<circle class="dot" data-cardinality="7" cx="-514.69" cy="1487.10" r="9" fill="#999" />
<circle class="dot" data-cardinality="7" cx="-653.72" cy="1431.44" r="9" fill="#999" />
<circle class="dot" data-cardinality="8" cx="1719.22" cy="805.94" r="9" fill="#999" />
<circle class="dot" data-cardinality="6" cx="-745.57" cy="-1026.19" r="9" fill="#999" />
<circle class="dot" data-cardinality="7" cx="-794.65" cy="1376.37" r="9" fill="#999" />
<circle class="dot" data-cardinality="6" cx="-662.76" cy="-1081.53" r="9" fill="#999" />
<circle class="dot" data-cardinality="7" cx="-912.80" cy="1281.85" r="9" fill="#999" />
<circle class="dot" data-cardinality="7" cx="-1030.52" cy="1189.28" r="9" fill="#999" />
<circle class="dot" data-cardinality="8" cx="1583.55" cy="1047.67" r="9" fill="#999" />
<circle class="dot" data-cardinality="7" cx="-1150.23" cy="1096.74" r="9" fill="#999" />
<circle class="dot" data-cardinality="7" cx="-1236.97" cy="972.76" r="9" fill="#999" />
<circle class="dot" data-cardinality="8" cx="1414.13" cy="1267.07" r="9" fill="#999" />
<circle class="dot" data-cardinality="7" cx="-1337.00" cy="859.24" r="9" fill="#999" />
<circle class="dot" data-cardinality="8" cx="1214.58" cy="1459.47" r="9" fill="#999" />
<circle class="dot" data-cardinality="8" cx="989.13" cy="1620.76" r="9" fill="#999" />
<circle class="dot" data-cardinality="9" cx="2240.00" cy="0.00" r="9" fill="#999" />
<circle class="dot" data-cardinality="4" cx="573.82" cy="-84.45" r="9" fill="#099" />
<circle class="dot" data-cardinality="5" cx="782.37" cy="-502.80" r="9" fill="#099" />
<circle class="dot" data-cardinality="5" cx="826.62" cy="-426.15" r="9" fill="#099" />
<circle class="dot" data-cardinality="6" cx="-569.27" cy="-1117.25" r="9" fill="#999" />
<circle class="dot" data-cardinality="5" cx="863.38" cy="-345.65" r="9" fill="#099" />
<circle class="dot" data-cardinality="5" cx="870.01" cy="-255.46" r="9" fill="#099" />
<circle class="dot" data-cardinality="6" cx="-473.26" cy="-1142.54" r="9" fill="#999" />
<circle class="dot" data-cardinality="6" cx="-382.16" cy="-1176.15" r="9" fill="#099" />
<circle class="dot" data-cardinality="6" cx="-288.70" cy="-1202.51" r="9" fill="#999" />
<circle class="dot" data-cardinality="7" cx="-1382.76" cy="712.86" r="9" fill="#999" />
<circle class="dot" data-cardinality="5" cx="913.19" cy="-176.00" r="9" fill="#099" />
<circle class="dot" data-cardinality="6" cx="-196.15" cy="-1238.48" r="9" fill="#999" />
<circle class="dot" data-cardinality="6" cx="-97.03" cy="-1232.87" r="9" fill="#099" />
<circle class="dot" data-cardinality="6" cx="0.00" cy="-1236.68" r="9" fill="#099" />
<circle class="dot" data-cardinality="7" cx="-1444.26" cy="578.19" r="9" fill="#999" />
<circle class="dot" data-cardinality="6" cx="98.38" cy="-1250.05" r="9" fill="#999" />
<circle class="dot" data-cardinality="6" cx="193.46" cy="-1221.46" r="9" fill="#999" />
<circle class="dot" data-cardinality="7" cx="-1492.68" cy="438.29" r="9" fill="#999" />
<circle class="dot" data-cardinality="7" cx="-1527.58" cy="294.42" r="9" fill="#999" />
<circle class="dot" data-cardinality="7" cx="-1548.65" cy="147.88" r="9" fill="#999" />
<circle class="dot" data-cardinality="8" cx="734.29" cy="1727.93" r="9" fill="#999" />
<circle class="dot" data-cardinality="5" cx="902.64" cy="-86.19" r="9" fill="#099" />
<circle class="dot" data-cardinality="6" cx="288.70" cy="-1202.51" r="9" fill="#999" />
<circle class="dot" data-cardinality="6" cx="382.16" cy="-1176.15" r="9" fill="#099" />
<circle class="dot" data-cardinality="6" cx="473.26" cy="-1142.54" r="9" fill="#999" />
<circle class="dot" data-cardinality="7" cx="-1555.70" cy="-0.00" r="9" fill="#999" />
<circle class="dot" data-cardinality="6" cx="561.44" cy="-1101.89" r="9" fill="#999" />
<circle class="dot" data-cardinality="6" cx="634.43" cy="-1035.29" r="9" fill="#099" />
<circle class="dot" data-cardinality="6" cx="713.70" cy="-982.33" r="9" fill="#099" />
<circle class="dot" data-cardinality="7" cx="-1527.05" cy="-145.82" r="9" fill="#999" />
<circle class="dot" data-cardinality="6" cx="803.16" cy="-940.38" r="9" fill="#099" />
<circle class="dot" data-cardinality="6" cx="858.58" cy="-858.58" r="9" fill="#099" />
<circle class="dot" data-cardinality="7" cx="-1506.28" cy="-290.31" r="9" fill="#999" />
<circle class="dot" data-cardinality="7" cx="-1471.86" cy="-432.18" r="9" fill="#999" />
<circle class="dot" data-cardinality="7" cx="-1424.12" cy="-570.13" r="9" fill="#999" />
<circle class="dot" data-cardinality="8" cx="468.50" cy="1792.02" r="9" fill="#999" />
<circle class="dot" data-cardinality="6" cx="940.38" cy="-803.16" r="9" fill="#099" />
<circle class="dot" data-cardinality="6" cx="1000.50" cy="-726.90" r="9" fill="#099" />
<circle class="dot" data-cardinality="7" cx="-1382.76" cy="-712.86" r="9" fill="#999" />
<circle class="dot" data-cardinality="6" cx="1054.44" cy="-646.16" r="9" fill="#099" />
<circle class="dot" data-cardinality="6" cx="1081.88" cy="-551.24" r="9" fill="#099" />
<circle class="dot" data-cardinality="7" cx="-1290.48" cy="-829.34" r="9" fill="#999" />
<circle class="dot" data-cardinality="7" cx="-1205.81" cy="-948.26" r="9" fill="#099" />
<circle class="dot" data-cardinality="7" cx="-1110.21" cy="-1058.58" r="9" fill="#999" />
<circle class="dot" data-cardinality="8" cx="202.58" cy="1841.14" r="9" fill="#999" />
<circle class="dot" data-cardinality="7" cx="-1018.77" cy="-1175.72" r="9" fill="#999" />
<circle class="dot" data-cardinality="7" cx="-889.81" cy="-1249.56" r="9" fill="#999" />
<circle class="dot" data-cardinality="7" cx="-767.00" cy="-1328.48" r="9" fill="#999" />
<circle class="dot" data-cardinality="8" cx="-67.65" cy="1851.01" r="9" fill="#999" />
<circle class="dot" data-cardinality="7" cx="-646.26" cy="-1415.11" r="9" fill="#999" />
<circle class="dot" data-cardinality="7" cx="-501.72" cy="-1449.63" r="9" fill="#999" />
<circle class="dot" data-cardinality="8" cx="-336.44" cy="1821.44" r="9" fill="#999" />
<circle class="dot" data-cardinality="8" cx="-598.06" cy="1753.04" r="9" fill="#999" />
<circle class="dot" data-cardinality="8" cx="-846.93" cy="1647.28" r="9" fill="#999" />
<circle class="dot" data-cardinality="9" cx="2060.46" cy="707.36" r="9" fill="#999" />
<circle class="dot" data-cardinality="6" cx="1158.47" cy="-479.85" r="9" fill="#099" />
<circle class="dot" data-cardinality="6" cx="1176.15" cy="-382.16" r="9" fill="#099" />
<circle class="dot" data-cardinality="7" cx="-366.77" cy="-1511.85" r="9" fill="#999" />
<circle class="dot" data-cardinality="7" cx="-221.40" cy="-1539.86" r="9" fill="#999" />
<circle class="dot" data-cardinality="7" cx="-74.02" cy="-1553.94" r="9" fill="#999" />
<circle class="dot" data-cardinality="8" cx="-1092.43" cy="1526.93" r="9" fill="#999" />
<circle class="dot" data-cardinality="6" cx="1202.51" cy="-288.70" r="9" fill="#099" />
<circle class="dot" data-cardinality="7" cx="74.02" cy="-1553.94" r="9" fill="#999" />
<circle class="dot" data-cardinality="6" cx="1199.27" cy="-189.95" r="9" fill="#099" />
<circle class="dot" data-cardinality="7" cx="218.31" cy="-1518.39" r="9" fill="#999" />
<circle class="dot" data-cardinality="7" cx="361.65" cy="-1490.76" r="9" fill="#099" />
<circle class="dot" data-cardinality="7" cx="501.72" cy="-1449.63" r="9" fill="#999" />
<circle class="dot" data-cardinality="8" cx="-1285.60" cy="1333.44" r="9" fill="#999" />
<circle class="dot" data-cardinality="7" cx="646.26" cy="-1415.11" r="9" fill="#999" />
<circle class="dot" data-cardinality="7" cx="767.00" cy="-1328.48" r="9" fill="#099" />
<circle class="dot" data-cardinality="7" cx="889.81" cy="-1249.56" r="9" fill="#099" />
<circle class="dot" data-cardinality="8" cx="-1466.05" cy="1132.05" r="9" fill="#999" />
<circle class="dot" data-cardinality="7" cx="1004.56" cy="-1159.32" r="9" fill="#999" />
<circle class="dot" data-cardinality="8" cx="-1615.25" cy="906.52" r="9" fill="#999" />
<circle class="dot" data-cardinality="8" cx="-1730.03" cy="661.68" r="9" fill="#999" />
<circle class="dot" data-cardinality="8" cx="-1807.94" cy="402.73" r="9" fill="#999" />
<circle class="dot" data-cardinality="9" cx="1719.14" cy="1338.06" r="9" fill="#999" />
<circle class="dot" data-cardinality="7" cx="1125.91" cy="-1073.55" r="9" fill="#999" />
<circle class="dot" data-cardinality="8" cx="-1872.47" cy="137.05" r="9" fill="#999" />
<circle class="dot" data-cardinality="7" cx="1205.81" cy="-948.26" r="9" fill="#999" />
<circle class="dot" data-cardinality="7" cx="1290.48" cy="-829.34" r="9" fill="#999" />
<circle class="dot" data-cardinality="8" cx="-1847.31" cy="-135.21" r="9" fill="#999" />
<circle class="dot" data-cardinality="7" cx="1363.47" cy="-702.92" r="9" fill="#999" />
<circle class="dot" data-cardinality="8" cx="-1807.94" cy="-402.74" r="9" fill="#999" />
<circle class="dot" data-cardinality="8" cx="-1730.03" cy="-661.68" r="9" fill="#999" />
<circle class="dot" data-cardinality="8" cx="-1615.25" cy="-906.52" r="9" fill="#999" />
<circle class="dot" data-cardinality="9" cx="1191.52" cy="1823.76" r="9" fill="#999" />
<circle class="dot" data-cardinality="8" cx="-1486.02" cy="-1147.47" r="9" fill="#999" />
<circle class="dot" data-cardinality="7" cx="1424.12" cy="-570.13" r="9" fill="#999" />
<circle class="dot" data-cardinality="8" cx="-1285.60" cy="-1333.44" r="9" fill="#999" />
<circle class="dot" data-cardinality="8" cx="-1077.75" cy="-1506.42" r="9" fill="#999" />
<circle class="dot" data-cardinality="8" cx="-846.93" cy="-1647.28" r="9" fill="#999" />
<circle class="dot" data-cardinality="9" cx="534.79" cy="2111.83" r="9" fill="#999" />
<circle class="dot" data-cardinality="8" cx="-598.06" cy="-1753.04" r="9" fill="#999" />
<circle class="dot" data-cardinality="8" cx="-336.44" cy="-1821.44" r="9" fill="#999" />
<circle class="dot" data-cardinality="9" cx="-179.90" cy="2171.05" r="9" fill="#999" />
<circle class="dot" data-cardinality="8" cx="-67.65" cy="-1851.01" r="9" fill="#999" />
<circle class="dot" data-cardinality="9" cx="-875.09" cy="1995.01" r="9" fill="#999" />
<circle class="dot" data-cardinality="9" cx="-1475.45" cy="1602.77" r="9" fill="#999" />
<circle class="dot" data-cardinality="9" cx="-1915.93" cy="1036.85" r="9" fill="#999" />
<circle class="dot" data-cardinality="6" cx="1156.42" cy="-91.01" r="9" fill="#099" />
<circle class="dot" data-cardinality="7" cx="1443.29" cy="-423.79" r="9" fill="#999" />
<circle class="dot" data-cardinality="7" cx="1477.04" cy="-284.68" r="9" fill="#099" />
<circle class="dot" data-cardinality="8" cx="198.99" cy="-1808.46" r="9" fill="#999" />
<circle class="dot" data-cardinality="7" cx="1497.41" cy="-142.98" r="9" fill="#099" />
<circle class="dot" data-cardinality="8" cx="460.18" cy="-1760.21" r="9" fill="#999" />
<circle class="dot" data-cardinality="8" cx="711.57" cy="-1674.45" r="9" fill="#999" />
<circle class="dot" data-cardinality="8" cx="947.78" cy="-1553.00" r="9" fill="#999" />
<circle class="dot" data-cardinality="9" cx="-2105.88" cy="351.41" r="9" fill="#999" />
<circle class="dot" data-cardinality="8" cx="1163.80" cy="-1398.46" r="9" fill="#999" />
<circle class="dot" data-cardinality="8" cx="1355.02" cy="-1214.10" r="9" fill="#999" />
<circle class="dot" data-cardinality="8" cx="1517.35" cy="-1003.87" r="9" fill="#999" />
<circle class="dot" data-cardinality="9" cx="-2105.88" cy="-351.41" r="9" fill="#999" />
<circle class="dot" data-cardinality="8" cx="1647.35" cy="-772.24" r="9" fill="#999" />
<circle class="dot" data-cardinality="8" cx="1742.23" cy="-524.16" r="9" fill="#999" />
<circle class="dot" data-cardinality="9" cx="-1877.68" cy="-1016.15" r="9" fill="#999" />
<circle class="dot" data-cardinality="9" cx="-1446.00" cy="-1570.77" r="9" fill="#999" />
<circle class="dot" data-cardinality="9" cx="-857.62" cy="-1955.18" r="9" fill="#999" />
<circle class="dot" data-cardinality="9" cx="-176.31" cy="-2127.71" r="9" fill="#999" />
<circle class="dot" data-cardinality="8" cx="1799.98" cy="-264.90" r="9" fill="#099" />
<circle class="dot" data-cardinality="9" cx="524.11" cy="-2069.67" r="9" fill="#999" />
<circle class="dot" data-cardinality="9" cx="1167.74" cy="-1787.35" r="9" fill="#999" />
<circle class="dot" data-cardinality="9" cx="1684.82" cy="-1311.34" r="9" fill="#999" />
<circle class="dot" data-cardinality="9" cx="2019.32" cy="-693.23" r="9" fill="#999" />
</svg>
